<?xml version="1.0"?>
<Project_Data Version="8.00">
<Project_Settings>
<ProfileName></ProfileName>
<ProjectWidth>1366</ProjectWidth>
<ProjectHeight>768</ProjectHeight>
<IsCustomProject>1</IsCustomProject>
<SavedProjectSettings>1</SavedProjectSettings>
<LastFlashTemplate>-1</LastFlashTemplate>
</Project_Settings>


<AutoSaveFile>C:\Users\Alynva\AppData\Local\TechSmith\Camtasia Studio\8.0\Auto-Saves\Vinheta Windows 8 Metro1c97d87e.autosave.camproj</AutoSaveFile>

<ProjectID>73865535-8DD5-4823-8DD4-274EE1BA9D18</ProjectID>

<PowerPointProject>0</PowerPointProject>

<PowerPointFilename></PowerPointFilename>


<Project_Notes>
</Project_Notes>

<Project_MetaData>
<Project_MetaData_Object>
<FieldArrayKey>8</FieldArrayKey>
<Value>Vinheta Windows 8 Metro</Value>
</Project_MetaData_Object>
<Project_MetaData_Object>
<FieldArrayKey>13</FieldArrayKey>
<Value>2015-03-19 10:25:56 </Value>
</Project_MetaData_Object>
<Project_MetaData_Object>
<FieldArrayKey>16</FieldArrayKey>
<Value>ENU</Value>
</Project_MetaData_Object>
</Project_MetaData>

<CSMLData>
<GoProject id="1" version="3.0" >
 <Project id="2" editRate="30/1" version="3.0" >
  <Author></Author>
  <Comment></Comment>
  <System></System>
  <SourceBin id="3"  >
    <Source id="4" src="C:\Users\Alynva\Google Drive\Academia Wired\Vinheta\Windows 8 Metro\Tela de bloqueio - Academia Wired.png" lastMod="20150319T133135" rect="(0,0,1366,768)" >
      <SourceTrack range="(0,1)" type="1" editRate="10000000/1" trackRect="(0,0,1366,768)" sampleRate="0/1" bitDepth="32" numChannels="0" filename="" metaData="" />
    </Source>
    <Source id="5" src="C:\Users\Alynva\Google Drive\Academia Wired\Vinheta\Windows 8 Metro\Tela de logon - Alynva 01.png" lastMod="20150319T134716" rect="(0,0,1366,768)" >
      <SourceTrack range="(0,1)" type="1" editRate="10000000/1" trackRect="(0,0,1366,768)" sampleRate="0/1" bitDepth="32" numChannels="0" filename="" metaData="" />
    </Source>
    <Source id="6" src="C:\Users\Alynva\Google Drive\Academia Wired\Vinheta\Windows 8 Metro\Tela de logon - Alynva 02.png" lastMod="20150319T134825" rect="(0,0,1366,768)" >
      <SourceTrack range="(0,1)" type="1" editRate="10000000/1" trackRect="(0,0,1366,768)" sampleRate="0/1" bitDepth="32" numChannels="0" filename="" metaData="" />
    </Source>
    <Source id="7" src="C:\Users\Alynva\Google Drive\Academia Wired\Vinheta\Windows 8 Metro\Tela de logon - Alynva 03.png" lastMod="20150319T142714" rect="(0,0,1366,768)" >
      <SourceTrack range="(0,1)" type="1" editRate="10000000/1" trackRect="(0,0,1366,768)" sampleRate="0/1" bitDepth="32" numChannels="0" filename="" metaData="" />
    </Source>
    <Source id="8" src="C:\Users\Alynva\Google Drive\Academia Wired\Vinheta\Windows 8 Metro\Tela de logon - Alynva 04.png" lastMod="20150319T142753" rect="(0,0,1366,768)" >
      <SourceTrack range="(0,1)" type="1" editRate="10000000/1" trackRect="(0,0,1366,768)" sampleRate="0/1" bitDepth="32" numChannels="0" filename="" metaData="" />
    </Source>
    <Source id="9" src="C:\Users\Alynva\Google Drive\Academia Wired\Vinheta\Windows 8 Metro\Tela de logon - Alynva 05.png" lastMod="20150319T142806" rect="(0,0,1366,768)" >
      <SourceTrack range="(0,1)" type="1" editRate="10000000/1" trackRect="(0,0,1366,768)" sampleRate="0/1" bitDepth="32" numChannels="0" filename="" metaData="" />
    </Source>
    <Source id="10" src="C:\Users\Alynva\Google Drive\Academia Wired\Vinheta\Windows 8 Metro\Tela de logon - Alynva 06.png" lastMod="20150319T143719" rect="(0,0,1366,768)" >
      <SourceTrack range="(0,1)" type="1" editRate="10000000/1" trackRect="(0,0,1366,768)" sampleRate="0/1" bitDepth="32" numChannels="0" filename="" metaData="" />
    </Source>
    <Source id="11" src="C:\Users\Alynva\Google Drive\Academia Wired\Vinheta\Windows 8 Metro\Tela de logon - Alynva 07.png" lastMod="20150319T143707" rect="(0,0,1366,768)" >
      <SourceTrack range="(0,1)" type="1" editRate="10000000/1" trackRect="(0,0,1366,768)" sampleRate="0/1" bitDepth="32" numChannels="0" filename="" metaData="" />
    </Source>
    <Source id="12" src="C:\Users\Alynva\Google Drive\Academia Wired\Vinheta\Windows 8 Metro\Tela de logon - Alynva 08.png" lastMod="20150319T143656" rect="(0,0,1366,768)" >
      <SourceTrack range="(0,1)" type="1" editRate="10000000/1" trackRect="(0,0,1366,768)" sampleRate="0/1" bitDepth="32" numChannels="0" filename="" metaData="" />
    </Source>
    <Source id="13" src="C:\Users\Alynva\Google Drive\Academia Wired\Vinheta\Windows 8 Metro\Tela de logon - Alynva 09.png" lastMod="20150319T143637" rect="(0,0,1366,768)" >
      <SourceTrack range="(0,1)" type="1" editRate="10000000/1" trackRect="(0,0,1366,768)" sampleRate="0/1" bitDepth="32" numChannels="0" filename="" metaData="" />
    </Source>
    <Source id="14" src="C:\Users\Alynva\Google Drive\Academia Wired\Vinheta\Windows 8 Metro\Tela de logon - Alynva 10.png" lastMod="20150319T143625" rect="(0,0,1366,768)" >
      <SourceTrack range="(0,1)" type="1" editRate="10000000/1" trackRect="(0,0,1366,768)" sampleRate="0/1" bitDepth="32" numChannels="0" filename="" metaData="" />
    </Source>
    <Source id="15" src="C:\Users\Alynva\Google Drive\Academia Wired\Vinheta\Windows 8 Metro\Tela de logon - Alynva 11.png" lastMod="20150319T143613" rect="(0,0,1366,768)" >
      <SourceTrack range="(0,1)" type="1" editRate="10000000/1" trackRect="(0,0,1366,768)" sampleRate="0/1" bitDepth="32" numChannels="0" filename="" metaData="" />
    </Source>
    <Source id="16" src="C:\Users\Alynva\Google Drive\Academia Wired\Vinheta\Windows 8 Metro\Tela de logon - Alynva 12.png" lastMod="20150319T143542" rect="(0,0,1366,768)" >
      <SourceTrack range="(0,1)" type="1" editRate="10000000/1" trackRect="(0,0,1366,768)" sampleRate="0/1" bitDepth="32" numChannels="0" filename="" metaData="" />
    </Source>
    <Source id="17" src="C:\Users\Alynva\Google Drive\Academia Wired\Vinheta\Windows 8 Metro\Tela de logon - Alynva 13.png" lastMod="20150319T143531" rect="(0,0,1366,768)" >
      <SourceTrack range="(0,1)" type="1" editRate="10000000/1" trackRect="(0,0,1366,768)" sampleRate="0/1" bitDepth="32" numChannels="0" filename="" metaData="" />
    </Source>
    <Source id="18" src="C:\Users\Alynva\Google Drive\Academia Wired\Vinheta\Windows 8 Metro\Tela de logon - Alynva 14.png" lastMod="20150319T143519" rect="(0,0,1366,768)" >
      <SourceTrack range="(0,1)" type="1" editRate="10000000/1" trackRect="(0,0,1366,768)" sampleRate="0/1" bitDepth="32" numChannels="0" filename="" metaData="" />
    </Source>
    <Source id="19" src="C:\Users\Alynva\Google Drive\Academia Wired\Vinheta\Windows 8 Metro\Tela de logon - Alynva 15.png" lastMod="20150319T143506" rect="(0,0,1366,768)" >
      <SourceTrack range="(0,1)" type="1" editRate="10000000/1" trackRect="(0,0,1366,768)" sampleRate="0/1" bitDepth="32" numChannels="0" filename="" metaData="" />
    </Source>
    <Source id="20" src="C:\Users\Alynva\Google Drive\Academia Wired\Vinheta\Windows 8 Metro\sound_machine_sample_549.wav" lastMod="20150320T021443" rect="(0,0,0,0)" >
      <SourceTrack range="(0,39333333)" type="2" editRate="10000000/1" trackRect="(0,0,0,0)" sampleRate="44100/1" bitDepth="16" numChannels="1" filename="" metaData="" />
    </Source>
    <Source id="21" src="C:\Users\Alynva\Google Drive\Academia Wired\Vinheta\Windows 8 Metro\sound_machine_sample_117.mp3" lastMod="20150320T015815" rect="(0,0,0,0)" >
      <SourceTrack range="(0,73000000)" type="2" editRate="10000000/1" trackRect="(0,0,0,0)" sampleRate="44100/1" bitDepth="0" numChannels="1" filename="" metaData="" />
    </Source>
  </SourceBin>
  <Timeline id="22"  >
   <Attributes>
    <Attribute id="23" value="1366" name="width"/>
    <Attribute id="24" value="768" name="height"/>
    <Attribute id="25" value="(0,0,0,255)" name="backgroundColor"/>
   </Attributes>
    <GenericMixer id="26"  name="Unified Mixer">
     <MetaData>
      <entry key="MixerType" val="TimelineMixer"/>
     </MetaData>
     <Tracks>
      <GenericTrack id="27"  >
       <Attributes>
        <Attribute id="28" value="" name="ident"/>
        <Attribute id="29" value="0" name="audioMuted"/>
        <Attribute id="30" value="0" name="videoHidden"/>
       </Attributes>
       <MetaData>
        <entry key="IsLocked" val="False"/>
        <entry key="WinTrackHeight" val="62"/>
       </MetaData>
       <Medias>
        <Group id="31" start="0" duration="219" scalar="1" mediaStart="0" mediaDuration="219" baseWidthAttr="0" baseHeightAttr="0"  >
         <Parameters>
          <VectorParam id="32"  name="sourceCrop">
           <InterpolatingParam id="33" interp="linr"  time="0/1" value="0" leadInLength="0/1"  />
           <InterpolatingParam id="34" interp="linr"  time="0/1" value="0" leadInLength="0/1"  />
           <InterpolatingParam id="35" interp="linr"  time="0/1" value="0" leadInLength="0/1"  />
           <InterpolatingParam id="36" interp="linr"  time="0/1" value="0" leadInLength="0/1"  />
          </VectorParam>
          <VectorParam id="37"  name="geometryCrop">
           <InterpolatingParam id="38" interp="linr"  time="0/1" value="0" leadInLength="0/1"  />
           <InterpolatingParam id="39" interp="linr"  time="0/1" value="0" leadInLength="0/1"  />
           <InterpolatingParam id="40" interp="linr"  time="0/1" value="0" leadInLength="0/1"  />
           <InterpolatingParam id="41" interp="linr"  time="0/1" value="0" leadInLength="0/1"  />
          </VectorParam>
          <InterpolatingParam id="42" interp="linr"  time="0/1" value="1" leadInLength="0/1"  name="opacity"/>
          <Parameter id="43"  name="captions"/>
          <InterpolatingParam id="44" interp="linr"  time="0/1" value="1" leadInLength="0/1"  name="volume"/>
         </Parameters>
         <Transformer>
          <VectorParam id="45"  name="translation">
           <InterpolatingParam id="46" interp="linr"  time="0/1" value="0" leadInLength="0/1"  />
           <InterpolatingParam id="47" interp="linr"  time="0/1" value="383.5" leadInLength="0/1"  />
           <InterpolatingParam id="48" interp="linr"  time="0/1" value="0" leadInLength="0/1"  />
          </VectorParam>
          <VectorParam id="49"  name="rotation">
           <InterpolatingParam id="50" interp="linr"  time="0/1" value="0" leadInLength="0/1"  />
           <InterpolatingParam id="51" interp="linr"  time="0/1" value="0" leadInLength="0/1"  />
           <InterpolatingParam id="52" interp="linr"  time="0/1" value="0" leadInLength="0/1"  />
          </VectorParam>
          <VectorParam id="53"  name="shear">
           <InterpolatingParam id="54" interp="linr"  time="0/1" value="0" leadInLength="0/1"  />
           <InterpolatingParam id="55" interp="linr"  time="0/1" value="0" leadInLength="0/1"  />
           <InterpolatingParam id="56" interp="linr"  time="0/1" value="0" leadInLength="0/1"  />
          </VectorParam>
          <VectorParam id="57"  name="scale">
           <InterpolatingParam id="58" interp="linr"  time="0/1" value="1" leadInLength="0/1"  />
           <InterpolatingParam id="59" interp="linr"  time="0/1" value="1" leadInLength="0/1"  />
           <InterpolatingParam id="60" interp="linr"  time="0/1" value="1" leadInLength="0/1"  />
          </VectorParam>
          <VectorParam id="61"  name="anchor">
           <InterpolatingParam id="62" interp="linr"  time="0/1" value="0" leadInLength="0/1"  />
           <InterpolatingParam id="63" interp="linr"  time="0/1" value="383.5" leadInLength="0/1"  />
           <InterpolatingParam id="64" interp="linr"  time="0/1" value="0" leadInLength="0/1"  />
          </VectorParam>
         </Transformer>
         <GenericMixer id="65"  >
          <MetaData>
          </MetaData>
          <Tracks>
           <GenericTrack id="66"  >
            <Attributes>
             <Attribute id="67" value="" name="ident"/>
             <Attribute id="68" value="0" name="audioMuted"/>
             <Attribute id="69" value="0" name="videoHidden"/>
            </Attributes>
            <MetaData>
             <entry key="IsLocked" val="False"/>
             <entry key="WinTrackHeight" val="0"/>
            </MetaData>
            <Medias>
             <Group id="70" start="0" duration="142" scalar="1" mediaStart="0" mediaDuration="142" baseWidthAttr="0" baseHeightAttr="0"  >
              <Parameters>
               <VectorParam id="71"  name="sourceCrop">
                <InterpolatingParam id="72" interp="linr"  time="0/1" value="0" leadInLength="0/1"  />
                <InterpolatingParam id="73" interp="linr"  time="0/1" value="0" leadInLength="0/1"  />
                <InterpolatingParam id="74" interp="linr"  time="0/1" value="0" leadInLength="0/1"  />
                <InterpolatingParam id="75" interp="linr"  time="0/1" value="0" leadInLength="0/1"  />
               </VectorParam>
               <VectorParam id="76"  name="geometryCrop">
                <InterpolatingParam id="77" interp="linr"  time="0/1" value="0" leadInLength="0/1"  />
                <InterpolatingParam id="78" interp="linr"  time="0/1" value="0" leadInLength="0/1"  />
                <InterpolatingParam id="79" interp="linr"  time="0/1" value="0" leadInLength="0/1"  />
                <InterpolatingParam id="80" interp="linr"  time="0/1" value="0" leadInLength="0/1"  />
               </VectorParam>
               <InterpolatingParam id="81" interp="linr"  time="0/1" value="1" leadInLength="0/1"  name="opacity"/>
               <Parameter id="82"  name="captions"/>
               <InterpolatingParam id="83" interp="linr"  time="0/1" value="1" leadInLength="0/1"  name="volume"/>
              </Parameters>
              <Transformer>
               <VectorParam id="84"  name="translation">
                <InterpolatingParam id="85" interp="linr"  time="0/1" value="0" leadInLength="0/1"  />
                <InterpolatingParam id="86" interp="linr"  time="0/1" value="383.5" leadInLength="0/1"  />
                <InterpolatingParam id="87" interp="linr"  time="0/1" value="0" leadInLength="0/1"  />
               </VectorParam>
               <VectorParam id="88"  name="rotation">
                <InterpolatingParam id="89" interp="linr"  time="0/1" value="0" leadInLength="0/1"  />
                <InterpolatingParam id="90" interp="linr"  time="0/1" value="0" leadInLength="0/1"  />
                <InterpolatingParam id="91" interp="linr"  time="0/1" value="0" leadInLength="0/1"  />
               </VectorParam>
               <VectorParam id="92"  name="shear">
                <InterpolatingParam id="93" interp="linr"  time="0/1" value="0" leadInLength="0/1"  />
                <InterpolatingParam id="94" interp="linr"  time="0/1" value="0" leadInLength="0/1"  />
                <InterpolatingParam id="95" interp="linr"  time="0/1" value="0" leadInLength="0/1"  />
               </VectorParam>
               <VectorParam id="96"  name="scale">
                <InterpolatingParam id="97" interp="linr"  time="0/1" value="1" leadInLength="0/1"  />
                <InterpolatingParam id="98" interp="linr"  time="0/1" value="1" leadInLength="0/1"  />
                <InterpolatingParam id="99" interp="linr"  time="0/1" value="1" leadInLength="0/1"  />
               </VectorParam>
               <VectorParam id="100"  name="anchor">
                <InterpolatingParam id="101" interp="linr"  time="0/1" value="0" leadInLength="0/1"  />
                <InterpolatingParam id="102" interp="linr"  time="0/1" value="383.5" leadInLength="0/1"  />
                <InterpolatingParam id="103" interp="linr"  time="0/1" value="0" leadInLength="0/1"  />
               </VectorParam>
              </Transformer>
              <GenericMixer id="104"  >
               <MetaData>
               </MetaData>
               <Tracks>
                <GenericTrack id="105"  >
                 <Attributes>
                  <Attribute id="106" value="" name="ident"/>
                  <Attribute id="107" value="0" name="audioMuted"/>
                  <Attribute id="108" value="0" name="videoHidden"/>
                 </Attributes>
                 <MetaData>
                  <entry key="IsLocked" val="False"/>
                  <entry key="WinTrackHeight" val="0"/>
                 </MetaData>
                 <Medias>
                  <IMFile id="109" start="38" duration="14" scalar="1/1" mediaStart="0/1" mediaDuration="1/1" trackNumber="0" src="5" trimStartSum="0/1" >
                   <Transformer>
                    <VectorParam id="110"  name="translation">
                     <InterpolatingParam id="111" interp="linr"  time="-9999999/1" value="0" leadInLength="0/1"  />
                     <InterpolatingParam id="112" interp="linr"  time="-9999999/1" value="0" leadInLength="0/1"  />
                     <InterpolatingParam id="113" interp="linr"  time="-9999999/1" value="0" leadInLength="0/1"  />
                    </VectorParam>
                    <VectorParam id="114"  name="rotation">
                     <InterpolatingParam id="115" interp="linr"  time="-9999999/1" value="0" leadInLength="0/1"  />
                     <InterpolatingParam id="116" interp="linr"  time="-9999999/1" value="0" leadInLength="0/1"  />
                     <InterpolatingParam id="117" interp="linr"  time="-9999999/1" value="0" leadInLength="0/1"  />
                    </VectorParam>
                    <VectorParam id="118"  name="shear">
                     <InterpolatingParam id="119" interp="linr"  time="-9999999/1" value="0" leadInLength="0/1"  />
                     <InterpolatingParam id="120" interp="linr"  time="-9999999/1" value="0" leadInLength="0/1"  />
                     <InterpolatingParam id="121" interp="linr"  time="-9999999/1" value="0" leadInLength="0/1"  />
                    </VectorParam>
                    <VectorParam id="122"  name="scale">
                     <InterpolatingParam id="123" interp="linr"  time="-9999999/1" value="1" leadInLength="0/1"  />
                     <InterpolatingParam id="124" interp="linr"  time="-9999999/1" value="1" leadInLength="0/1"  />
                     <InterpolatingParam id="125" interp="linr"  time="-9999999/1" value="1" leadInLength="0/1"  />
                    </VectorParam>
                    <VectorParam id="126"  name="anchor">
                     <InterpolatingParam id="127" interp="linr"  time="0/1" value="0" leadInLength="0/1"  />
                     <InterpolatingParam id="128" interp="linr"  time="0/1" value="0" leadInLength="0/1"  />
                     <InterpolatingParam id="129" interp="linr"  time="0/1" value="0" leadInLength="0/1"  />
                    </VectorParam>
                   </Transformer>
                   <Parameters>
                    <VectorParam id="130"  name="sourceCrop">
                     <InterpolatingParam id="131" interp="linr"  time="0/1" value="0" leadInLength="0/1"  />
                     <InterpolatingParam id="132" interp="linr"  time="0/1" value="0" leadInLength="0/1"  />
                     <InterpolatingParam id="133" interp="linr"  time="0/1" value="0" leadInLength="0/1"  />
                     <InterpolatingParam id="134" interp="linr"  time="0/1" value="0" leadInLength="0/1"  />
                    </VectorParam>
                    <VectorParam id="135"  name="geometryCrop">
                     <InterpolatingParam id="136" interp="linr"  time="-9999999/1" value="0" leadInLength="0/1"  />
                     <InterpolatingParam id="137" interp="linr"  time="-9999999/1" value="0" leadInLength="0/1"  />
                     <InterpolatingParam id="138" interp="linr"  time="-9999999/1" value="0" leadInLength="0/1"  />
                     <InterpolatingParam id="139" interp="linr"  time="-9999999/1" value="0" leadInLength="0/1"  />
                    </VectorParam>
                    <InterpolatingParam id="140" interp="linr"  time="-9999999/1" value="1" leadInLength="0/1"  name="opacity"/>
                   </Parameters>
                   <Attributes>
                    <Attribute id="141" value="" name="ident"/>
                   </Attributes>
                   <MetaData>
                    <entry key="WinSubProjectDisplayName" val=""/>
                   </MetaData>
                   <ExtraData>
                    <Entry key="ZoomPanBin">
                     <ZoomPanBin id="142"  >
                      <ZoomPanKeyframes>
                       <ZoomPanKeyframe id="143" timeRangeEnd="-9999999/1" timeRangeDuration="0/1" interpolaterName="linr"  />
                      </ZoomPanKeyframes>
                     </ZoomPanBin>
                    </Entry>
                   </ExtraData>
                  </IMFile>
                  <IMFile id="144" start="52" duration="10" scalar="1/1" mediaStart="0/1" mediaDuration="1/1" trackNumber="0" src="5" trimStartSum="14/1" >
                   <Transformer>
                    <VectorParam id="145"  name="translation">
                     <InterpolatingParam id="146" interp="linr"  time="-9999999/1" value="0" leadInLength="0/1"  />
                     <InterpolatingParam id="147" interp="linr"  time="-9999999/1" value="0" leadInLength="0/1"  />
                     <InterpolatingParam id="148" interp="linr"  time="-9999999/1" value="0" leadInLength="0/1"  />
                    </VectorParam>
                    <VectorParam id="149"  name="rotation">
                     <InterpolatingParam id="150" interp="linr"  time="-9999999/1" value="0" leadInLength="0/1"  />
                     <InterpolatingParam id="151" interp="linr"  time="-9999999/1" value="0" leadInLength="0/1"  />
                     <InterpolatingParam id="152" interp="linr"  time="-9999999/1" value="0" leadInLength="0/1"  />
                    </VectorParam>
                    <VectorParam id="153"  name="shear">
                     <InterpolatingParam id="154" interp="linr"  time="-9999999/1" value="0" leadInLength="0/1"  />
                     <InterpolatingParam id="155" interp="linr"  time="-9999999/1" value="0" leadInLength="0/1"  />
                     <InterpolatingParam id="156" interp="linr"  time="-9999999/1" value="0" leadInLength="0/1"  />
                    </VectorParam>
                    <VectorParam id="157"  name="scale">
                     <InterpolatingParam id="158" interp="linr"  time="-9999999/1" value="1" leadInLength="0/1"  />
                     <InterpolatingParam id="159" interp="linr"  time="-9999999/1" value="1" leadInLength="0/1"  />
                     <InterpolatingParam id="160" interp="linr"  time="-9999999/1" value="1" leadInLength="0/1"  />
                    </VectorParam>
                    <VectorParam id="161"  name="anchor">
                     <InterpolatingParam id="162" interp="linr"  time="0/1" value="0" leadInLength="0/1"  />
                     <InterpolatingParam id="163" interp="linr"  time="0/1" value="0" leadInLength="0/1"  />
                     <InterpolatingParam id="164" interp="linr"  time="0/1" value="0" leadInLength="0/1"  />
                    </VectorParam>
                   </Transformer>
                   <Parameters>
                    <VectorParam id="165"  name="sourceCrop">
                     <InterpolatingParam id="166" interp="linr"  time="0/1" value="0" leadInLength="0/1"  />
                     <InterpolatingParam id="167" interp="linr"  time="0/1" value="0" leadInLength="0/1"  />
                     <InterpolatingParam id="168" interp="linr"  time="0/1" value="0" leadInLength="0/1"  />
                     <InterpolatingParam id="169" interp="linr"  time="0/1" value="0" leadInLength="0/1"  />
                    </VectorParam>
                    <VectorParam id="170"  name="geometryCrop">
                     <InterpolatingParam id="171" interp="linr"  time="-9999999/1" value="0" leadInLength="0/1"  />
                     <InterpolatingParam id="172" interp="linr"  time="-9999999/1" value="0" leadInLength="0/1"  />
                     <InterpolatingParam id="173" interp="linr"  time="-9999999/1" value="0" leadInLength="0/1"  />
                     <InterpolatingParam id="174" interp="linr"  time="-9999999/1" value="0" leadInLength="0/1"  />
                    </VectorParam>
                    <InterpolatingParam id="175" interp="linr"  time="-9999999/1" value="1" leadInLength="0/1"  name="opacity"/>
                   </Parameters>
                   <Attributes>
                    <Attribute id="176" value="" name="ident"/>
                   </Attributes>
                   <MetaData>
                    <entry key="WinSubProjectDisplayName" val=""/>
                   </MetaData>
                   <ExtraData>
                    <Entry key="ZoomPanBin">
                     <ZoomPanBin id="177"  >
                      <ZoomPanKeyframes>
                       <ZoomPanKeyframe id="178" timeRangeEnd="-9999999/1" timeRangeDuration="0/1" interpolaterName="linr"  />
                      </ZoomPanKeyframes>
                     </ZoomPanBin>
                    </Entry>
                   </ExtraData>
                  </IMFile>
                  <IMFile id="179" start="62" duration="10" scalar="1/1" mediaStart="0/1" mediaDuration="1/1" trackNumber="0" src="6" trimStartSum="0/1" >
                   <Transformer>
                    <VectorParam id="180"  name="translation">
                     <InterpolatingParam id="181" interp="linr"  time="-9999999/1" value="0" leadInLength="0/1"  />
                     <InterpolatingParam id="182" interp="linr"  time="-9999999/1" value="0" leadInLength="0/1"  />
                     <InterpolatingParam id="183" interp="linr"  time="-9999999/1" value="0" leadInLength="0/1"  />
                    </VectorParam>
                    <VectorParam id="184"  name="rotation">
                     <InterpolatingParam id="185" interp="linr"  time="-9999999/1" value="0" leadInLength="0/1"  />
                     <InterpolatingParam id="186" interp="linr"  time="-9999999/1" value="0" leadInLength="0/1"  />
                     <InterpolatingParam id="187" interp="linr"  time="-9999999/1" value="0" leadInLength="0/1"  />
                    </VectorParam>
                    <VectorParam id="188"  name="shear">
                     <InterpolatingParam id="189" interp="linr"  time="-9999999/1" value="0" leadInLength="0/1"  />
                     <InterpolatingParam id="190" interp="linr"  time="-9999999/1" value="0" leadInLength="0/1"  />
                     <InterpolatingParam id="191" interp="linr"  time="-9999999/1" value="0" leadInLength="0/1"  />
                    </VectorParam>
                    <VectorParam id="192"  name="scale">
                     <InterpolatingParam id="193" interp="linr"  time="-9999999/1" value="1" leadInLength="0/1"  />
                     <InterpolatingParam id="194" interp="linr"  time="-9999999/1" value="1" leadInLength="0/1"  />
                     <InterpolatingParam id="195" interp="linr"  time="-9999999/1" value="1" leadInLength="0/1"  />
                    </VectorParam>
                    <VectorParam id="196"  name="anchor">
                     <InterpolatingParam id="197" interp="linr"  time="0/1" value="0" leadInLength="0/1"  />
                     <InterpolatingParam id="198" interp="linr"  time="0/1" value="0" leadInLength="0/1"  />
                     <InterpolatingParam id="199" interp="linr"  time="0/1" value="0" leadInLength="0/1"  />
                    </VectorParam>
                   </Transformer>
                   <Parameters>
                    <VectorParam id="200"  name="sourceCrop">
                     <InterpolatingParam id="201" interp="linr"  time="0/1" value="0" leadInLength="0/1"  />
                     <InterpolatingParam id="202" interp="linr"  time="0/1" value="0" leadInLength="0/1"  />
                     <InterpolatingParam id="203" interp="linr"  time="0/1" value="0" leadInLength="0/1"  />
                     <InterpolatingParam id="204" interp="linr"  time="0/1" value="0" leadInLength="0/1"  />
                    </VectorParam>
                    <VectorParam id="205"  name="geometryCrop">
                     <InterpolatingParam id="206" interp="linr"  time="-9999999/1" value="0" leadInLength="0/1"  />
                     <InterpolatingParam id="207" interp="linr"  time="-9999999/1" value="0" leadInLength="0/1"  />
                     <InterpolatingParam id="208" interp="linr"  time="-9999999/1" value="0" leadInLength="0/1"  />
                     <InterpolatingParam id="209" interp="linr"  time="-9999999/1" value="0" leadInLength="0/1"  />
                    </VectorParam>
                    <InterpolatingParam id="210" interp="linr"  time="-9999999/1" value="1" leadInLength="0/1"  name="opacity"/>
                   </Parameters>
                   <Attributes>
                    <Attribute id="211" value="" name="ident"/>
                   </Attributes>
                   <MetaData>
                    <entry key="WinSubProjectDisplayName" val=""/>
                   </MetaData>
                   <ExtraData>
                    <Entry key="ZoomPanBin">
                     <ZoomPanBin id="212"  >
                      <ZoomPanKeyframes>
                       <ZoomPanKeyframe id="213" timeRangeEnd="-9999999/1" timeRangeDuration="0/1" interpolaterName="linr"  />
                      </ZoomPanKeyframes>
                     </ZoomPanBin>
                    </Entry>
                   </ExtraData>
                  </IMFile>
                  <IMFile id="214" start="72" duration="10" scalar="1/1" mediaStart="0/1" mediaDuration="1/1" trackNumber="0" src="5" trimStartSum="14/1" >
                   <Transformer>
                    <VectorParam id="215"  name="translation">
                     <InterpolatingParam id="216" interp="linr"  time="-9999999/1" value="0" leadInLength="0/1"  />
                     <InterpolatingParam id="217" interp="linr"  time="-9999999/1" value="0" leadInLength="0/1"  />
                     <InterpolatingParam id="218" interp="linr"  time="-9999999/1" value="0" leadInLength="0/1"  />
                    </VectorParam>
                    <VectorParam id="219"  name="rotation">
                     <InterpolatingParam id="220" interp="linr"  time="-9999999/1" value="0" leadInLength="0/1"  />
                     <InterpolatingParam id="221" interp="linr"  time="-9999999/1" value="0" leadInLength="0/1"  />
                     <InterpolatingParam id="222" interp="linr"  time="-9999999/1" value="0" leadInLength="0/1"  />
                    </VectorParam>
                    <VectorParam id="223"  name="shear">
                     <InterpolatingParam id="224" interp="linr"  time="-9999999/1" value="0" leadInLength="0/1"  />
                     <InterpolatingParam id="225" interp="linr"  time="-9999999/1" value="0" leadInLength="0/1"  />
                     <InterpolatingParam id="226" interp="linr"  time="-9999999/1" value="0" leadInLength="0/1"  />
                    </VectorParam>
                    <VectorParam id="227"  name="scale">
                     <InterpolatingParam id="228" interp="linr"  time="-9999999/1" value="1" leadInLength="0/1"  />
                     <InterpolatingParam id="229" interp="linr"  time="-9999999/1" value="1" leadInLength="0/1"  />
                     <InterpolatingParam id="230" interp="linr"  time="-9999999/1" value="1" leadInLength="0/1"  />
                    </VectorParam>
                    <VectorParam id="231"  name="anchor">
                     <InterpolatingParam id="232" interp="linr"  time="0/1" value="0" leadInLength="0/1"  />
                     <InterpolatingParam id="233" interp="linr"  time="0/1" value="0" leadInLength="0/1"  />
                     <InterpolatingParam id="234" interp="linr"  time="0/1" value="0" leadInLength="0/1"  />
                    </VectorParam>
                   </Transformer>
                   <Parameters>
                    <VectorParam id="235"  name="sourceCrop">
                     <InterpolatingParam id="236" interp="linr"  time="0/1" value="0" leadInLength="0/1"  />
                     <InterpolatingParam id="237" interp="linr"  time="0/1" value="0" leadInLength="0/1"  />
                     <InterpolatingParam id="238" interp="linr"  time="0/1" value="0" leadInLength="0/1"  />
                     <InterpolatingParam id="239" interp="linr"  time="0/1" value="0" leadInLength="0/1"  />
                    </VectorParam>
                    <VectorParam id="240"  name="geometryCrop">
                     <InterpolatingParam id="241" interp="linr"  time="-9999999/1" value="0" leadInLength="0/1"  />
                     <InterpolatingParam id="242" interp="linr"  time="-9999999/1" value="0" leadInLength="0/1"  />
                     <InterpolatingParam id="243" interp="linr"  time="-9999999/1" value="0" leadInLength="0/1"  />
                     <InterpolatingParam id="244" interp="linr"  time="-9999999/1" value="0" leadInLength="0/1"  />
                    </VectorParam>
                    <InterpolatingParam id="245" interp="linr"  time="-9999999/1" value="1" leadInLength="0/1"  name="opacity"/>
                   </Parameters>
                   <Attributes>
                    <Attribute id="246" value="" name="ident"/>
                   </Attributes>
                   <MetaData>
                    <entry key="WinSubProjectDisplayName" val=""/>
                   </MetaData>
                   <ExtraData>
                    <Entry key="ZoomPanBin">
                     <ZoomPanBin id="247"  >
                      <ZoomPanKeyframes>
                       <ZoomPanKeyframe id="248" timeRangeEnd="-9999999/1" timeRangeDuration="0/1" interpolaterName="linr"  />
                      </ZoomPanKeyframes>
                     </ZoomPanBin>
                    </Entry>
                   </ExtraData>
                  </IMFile>
                  <IMFile id="249" start="82" duration="10" scalar="1/1" mediaStart="0/1" mediaDuration="1/1" trackNumber="0" src="6" trimStartSum="0/1" >
                   <Transformer>
                    <VectorParam id="250"  name="translation">
                     <InterpolatingParam id="251" interp="linr"  time="-9999999/1" value="0" leadInLength="0/1"  />
                     <InterpolatingParam id="252" interp="linr"  time="-9999999/1" value="0" leadInLength="0/1"  />
                     <InterpolatingParam id="253" interp="linr"  time="-9999999/1" value="0" leadInLength="0/1"  />
                    </VectorParam>
                    <VectorParam id="254"  name="rotation">
                     <InterpolatingParam id="255" interp="linr"  time="-9999999/1" value="0" leadInLength="0/1"  />
                     <InterpolatingParam id="256" interp="linr"  time="-9999999/1" value="0" leadInLength="0/1"  />
                     <InterpolatingParam id="257" interp="linr"  time="-9999999/1" value="0" leadInLength="0/1"  />
                    </VectorParam>
                    <VectorParam id="258"  name="shear">
                     <InterpolatingParam id="259" interp="linr"  time="-9999999/1" value="0" leadInLength="0/1"  />
                     <InterpolatingParam id="260" interp="linr"  time="-9999999/1" value="0" leadInLength="0/1"  />
                     <InterpolatingParam id="261" interp="linr"  time="-9999999/1" value="0" leadInLength="0/1"  />
                    </VectorParam>
                    <VectorParam id="262"  name="scale">
                     <InterpolatingParam id="263" interp="linr"  time="-9999999/1" value="1" leadInLength="0/1"  />
                     <InterpolatingParam id="264" interp="linr"  time="-9999999/1" value="1" leadInLength="0/1"  />
                     <InterpolatingParam id="265" interp="linr"  time="-9999999/1" value="1" leadInLength="0/1"  />
                    </VectorParam>
                    <VectorParam id="266"  name="anchor">
                     <InterpolatingParam id="267" interp="linr"  time="0/1" value="0" leadInLength="0/1"  />
                     <InterpolatingParam id="268" interp="linr"  time="0/1" value="0" leadInLength="0/1"  />
                     <InterpolatingParam id="269" interp="linr"  time="0/1" value="0" leadInLength="0/1"  />
                    </VectorParam>
                   </Transformer>
                   <Parameters>
                    <VectorParam id="270"  name="sourceCrop">
                     <InterpolatingParam id="271" interp="linr"  time="0/1" value="0" leadInLength="0/1"  />
                     <InterpolatingParam id="272" interp="linr"  time="0/1" value="0" leadInLength="0/1"  />
                     <InterpolatingParam id="273" interp="linr"  time="0/1" value="0" leadInLength="0/1"  />
                     <InterpolatingParam id="274" interp="linr"  time="0/1" value="0" leadInLength="0/1"  />
                    </VectorParam>
                    <VectorParam id="275"  name="geometryCrop">
                     <InterpolatingParam id="276" interp="linr"  time="-9999999/1" value="0" leadInLength="0/1"  />
                     <InterpolatingParam id="277" interp="linr"  time="-9999999/1" value="0" leadInLength="0/1"  />
                     <InterpolatingParam id="278" interp="linr"  time="-9999999/1" value="0" leadInLength="0/1"  />
                     <InterpolatingParam id="279" interp="linr"  time="-9999999/1" value="0" leadInLength="0/1"  />
                    </VectorParam>
                    <InterpolatingParam id="280" interp="linr"  time="-9999999/1" value="1" leadInLength="0/1"  name="opacity"/>
                   </Parameters>
                   <Attributes>
                    <Attribute id="281" value="" name="ident"/>
                   </Attributes>
                   <MetaData>
                    <entry key="WinSubProjectDisplayName" val=""/>
                   </MetaData>
                   <ExtraData>
                    <Entry key="ZoomPanBin">
                     <ZoomPanBin id="282"  >
                      <ZoomPanKeyframes>
                       <ZoomPanKeyframe id="283" timeRangeEnd="-9999999/1" timeRangeDuration="0/1" interpolaterName="linr"  />
                      </ZoomPanKeyframes>
                     </ZoomPanBin>
                    </Entry>
                   </ExtraData>
                  </IMFile>
                  <IMFile id="284" start="92" duration="10" scalar="1/1" mediaStart="0/1" mediaDuration="1/1" trackNumber="0" src="5" trimStartSum="14/1" >
                   <Transformer>
                    <VectorParam id="285"  name="translation">
                     <InterpolatingParam id="286" interp="linr"  time="-9999999/1" value="0" leadInLength="0/1"  />
                     <InterpolatingParam id="287" interp="linr"  time="-9999999/1" value="0" leadInLength="0/1"  />
                     <InterpolatingParam id="288" interp="linr"  time="-9999999/1" value="0" leadInLength="0/1"  />
                    </VectorParam>
                    <VectorParam id="289"  name="rotation">
                     <InterpolatingParam id="290" interp="linr"  time="-9999999/1" value="0" leadInLength="0/1"  />
                     <InterpolatingParam id="291" interp="linr"  time="-9999999/1" value="0" leadInLength="0/1"  />
                     <InterpolatingParam id="292" interp="linr"  time="-9999999/1" value="0" leadInLength="0/1"  />
                    </VectorParam>
                    <VectorParam id="293"  name="shear">
                     <InterpolatingParam id="294" interp="linr"  time="-9999999/1" value="0" leadInLength="0/1"  />
                     <InterpolatingParam id="295" interp="linr"  time="-9999999/1" value="0" leadInLength="0/1"  />
                     <InterpolatingParam id="296" interp="linr"  time="-9999999/1" value="0" leadInLength="0/1"  />
                    </VectorParam>
                    <VectorParam id="297"  name="scale">
                     <InterpolatingParam id="298" interp="linr"  time="-9999999/1" value="1" leadInLength="0/1"  />
                     <InterpolatingParam id="299" interp="linr"  time="-9999999/1" value="1" leadInLength="0/1"  />
                     <InterpolatingParam id="300" interp="linr"  time="-9999999/1" value="1" leadInLength="0/1"  />
                    </VectorParam>
                    <VectorParam id="301"  name="anchor">
                     <InterpolatingParam id="302" interp="linr"  time="0/1" value="0" leadInLength="0/1"  />
                     <InterpolatingParam id="303" interp="linr"  time="0/1" value="0" leadInLength="0/1"  />
                     <InterpolatingParam id="304" interp="linr"  time="0/1" value="0" leadInLength="0/1"  />
                    </VectorParam>
                   </Transformer>
                   <Parameters>
                    <VectorParam id="305"  name="sourceCrop">
                     <InterpolatingParam id="306" interp="linr"  time="0/1" value="0" leadInLength="0/1"  />
                     <InterpolatingParam id="307" interp="linr"  time="0/1" value="0" leadInLength="0/1"  />
                     <InterpolatingParam id="308" interp="linr"  time="0/1" value="0" leadInLength="0/1"  />
                     <InterpolatingParam id="309" interp="linr"  time="0/1" value="0" leadInLength="0/1"  />
                    </VectorParam>
                    <VectorParam id="310"  name="geometryCrop">
                     <InterpolatingParam id="311" interp="linr"  time="-9999999/1" value="0" leadInLength="0/1"  />
                     <InterpolatingParam id="312" interp="linr"  time="-9999999/1" value="0" leadInLength="0/1"  />
                     <InterpolatingParam id="313" interp="linr"  time="-9999999/1" value="0" leadInLength="0/1"  />
                     <InterpolatingParam id="314" interp="linr"  time="-9999999/1" value="0" leadInLength="0/1"  />
                    </VectorParam>
                    <InterpolatingParam id="315" interp="linr"  time="-9999999/1" value="1" leadInLength="0/1"  name="opacity"/>
                   </Parameters>
                   <Attributes>
                    <Attribute id="316" value="" name="ident"/>
                   </Attributes>
                   <MetaData>
                    <entry key="WinSubProjectDisplayName" val=""/>
                   </MetaData>
                   <ExtraData>
                    <Entry key="ZoomPanBin">
                     <ZoomPanBin id="317"  >
                      <ZoomPanKeyframes>
                       <ZoomPanKeyframe id="318" timeRangeEnd="-9999999/1" timeRangeDuration="0/1" interpolaterName="linr"  />
                      </ZoomPanKeyframes>
                     </ZoomPanBin>
                    </Entry>
                   </ExtraData>
                  </IMFile>
                  <IMFile id="319" start="102" duration="8" scalar="1/1" mediaStart="0/1" mediaDuration="1/1" trackNumber="0" src="6" trimStartSum="0/1" >
                   <Transformer>
                    <VectorParam id="320"  name="translation">
                     <InterpolatingParam id="321" interp="linr"  time="-9999999/1" value="0" leadInLength="0/1"  />
                     <InterpolatingParam id="322" interp="linr"  time="-9999999/1" value="0" leadInLength="0/1"  />
                     <InterpolatingParam id="323" interp="linr"  time="-9999999/1" value="0" leadInLength="0/1"  />
                    </VectorParam>
                    <VectorParam id="324"  name="rotation">
                     <InterpolatingParam id="325" interp="linr"  time="-9999999/1" value="0" leadInLength="0/1"  />
                     <InterpolatingParam id="326" interp="linr"  time="-9999999/1" value="0" leadInLength="0/1"  />
                     <InterpolatingParam id="327" interp="linr"  time="-9999999/1" value="0" leadInLength="0/1"  />
                    </VectorParam>
                    <VectorParam id="328"  name="shear">
                     <InterpolatingParam id="329" interp="linr"  time="-9999999/1" value="0" leadInLength="0/1"  />
                     <InterpolatingParam id="330" interp="linr"  time="-9999999/1" value="0" leadInLength="0/1"  />
                     <InterpolatingParam id="331" interp="linr"  time="-9999999/1" value="0" leadInLength="0/1"  />
                    </VectorParam>
                    <VectorParam id="332"  name="scale">
                     <InterpolatingParam id="333" interp="linr"  time="-9999999/1" value="1" leadInLength="0/1"  />
                     <InterpolatingParam id="334" interp="linr"  time="-9999999/1" value="1" leadInLength="0/1"  />
                     <InterpolatingParam id="335" interp="linr"  time="-9999999/1" value="1" leadInLength="0/1"  />
                    </VectorParam>
                    <VectorParam id="336"  name="anchor">
                     <InterpolatingParam id="337" interp="linr"  time="0/1" value="0" leadInLength="0/1"  />
                     <InterpolatingParam id="338" interp="linr"  time="0/1" value="0" leadInLength="0/1"  />
                     <InterpolatingParam id="339" interp="linr"  time="0/1" value="0" leadInLength="0/1"  />
                    </VectorParam>
                   </Transformer>
                   <Parameters>
                    <VectorParam id="340"  name="sourceCrop">
                     <InterpolatingParam id="341" interp="linr"  time="0/1" value="0" leadInLength="0/1"  />
                     <InterpolatingParam id="342" interp="linr"  time="0/1" value="0" leadInLength="0/1"  />
                     <InterpolatingParam id="343" interp="linr"  time="0/1" value="0" leadInLength="0/1"  />
                     <InterpolatingParam id="344" interp="linr"  time="0/1" value="0" leadInLength="0/1"  />
                    </VectorParam>
                    <VectorParam id="345"  name="geometryCrop">
                     <InterpolatingParam id="346" interp="linr"  time="-9999999/1" value="0" leadInLength="0/1"  />
                     <InterpolatingParam id="347" interp="linr"  time="-9999999/1" value="0" leadInLength="0/1"  />
                     <InterpolatingParam id="348" interp="linr"  time="-9999999/1" value="0" leadInLength="0/1"  />
                     <InterpolatingParam id="349" interp="linr"  time="-9999999/1" value="0" leadInLength="0/1"  />
                    </VectorParam>
                    <InterpolatingParam id="350" interp="linr"  time="-9999999/1" value="1" leadInLength="0/1"  name="opacity"/>
                   </Parameters>
                   <Attributes>
                    <Attribute id="351" value="" name="ident"/>
                   </Attributes>
                   <MetaData>
                    <entry key="WinSubProjectDisplayName" val=""/>
                   </MetaData>
                   <ExtraData>
                    <Entry key="ZoomPanBin">
                     <ZoomPanBin id="352"  >
                      <ZoomPanKeyframes>
                       <ZoomPanKeyframe id="353" timeRangeEnd="-9999999/1" timeRangeDuration="0/1" interpolaterName="linr"  />
                      </ZoomPanKeyframes>
                     </ZoomPanBin>
                    </Entry>
                   </ExtraData>
                  </IMFile>
                  <UnifiedMedia id="354"  >
                   <AudioTransition id="355" start="110" duration="4" >
                    <Parameters>
                     <InterpolatingParam id="356" interp="linr"  time="0/1" value="1" leadInLength="0/1"  name="volume"/>
                     <Parameter id="357"  name="captions"/>
                    </Parameters>
                    <Effects>
                     <GenericEffect id="358" name = "AudioTransition" >
                      <Parameters>
                      <Parameter id="359"   name="audioEdgeModType">
                       <Keyframes>
                       <Keyframe id="360"  time="0/1" value="0" leadInLength="0/1"  />
                       </Keyframes>
                      </Parameter>
                      <Parameter id="361"   name="audioTransitionType">
                       <Keyframes>
                       <Keyframe id="362"  time="0/1" value="" leadInLength="0/1"  />
                       </Keyframes>
                      </Parameter>
                      </Parameters>
                      <MetaData>
                      </MetaData>
                     </GenericEffect>
                    </Effects>
                    <Attributes>
                     <Attribute id="363" value="" name="ident"/>
                     <Attribute id="364" value="0" name="sampleRate"/>
                     <Attribute id="365" value="0" name="bitDepth"/>
                     <Attribute id="366" value="1" name="gain"/>
                     <Attribute id="367" value="0" name="mixToMono"/>
                    </Attributes>
                   </AudioTransition>
                   <ImageTransition id="368" start="110" duration="4" >
                    <Transformer>
                     <VectorParam id="369"  name="translation">
                      <InterpolatingParam id="370" interp="linr"  time="0/1" value="0" leadInLength="0/1"  />
                      <InterpolatingParam id="371" interp="linr"  time="0/1" value="0" leadInLength="0/1"  />
                      <InterpolatingParam id="372" interp="linr"  time="0/1" value="0" leadInLength="0/1"  />
                     </VectorParam>
                     <VectorParam id="373"  name="rotation">
                      <InterpolatingParam id="374" interp="linr"  time="0/1" value="0" leadInLength="0/1"  />
                      <InterpolatingParam id="375" interp="linr"  time="0/1" value="0" leadInLength="0/1"  />
                      <InterpolatingParam id="376" interp="linr"  time="0/1" value="0" leadInLength="0/1"  />
                     </VectorParam>
                     <VectorParam id="377"  name="shear">
                      <InterpolatingParam id="378" interp="linr"  time="0/1" value="0" leadInLength="0/1"  />
                      <InterpolatingParam id="379" interp="linr"  time="0/1" value="0" leadInLength="0/1"  />
                      <InterpolatingParam id="380" interp="linr"  time="0/1" value="0" leadInLength="0/1"  />
                     </VectorParam>
                     <VectorParam id="381"  name="scale">
                      <InterpolatingParam id="382" interp="linr"  time="0/1" value="1" leadInLength="0/1"  />
                      <InterpolatingParam id="383" interp="linr"  time="0/1" value="1" leadInLength="0/1"  />
                      <InterpolatingParam id="384" interp="linr"  time="0/1" value="1" leadInLength="0/1"  />
                     </VectorParam>
                     <VectorParam id="385"  name="anchor">
                      <InterpolatingParam id="386" interp="linr"  time="0/1" value="0" leadInLength="0/1"  />
                      <InterpolatingParam id="387" interp="linr"  time="0/1" value="0" leadInLength="0/1"  />
                      <InterpolatingParam id="388" interp="linr"  time="0/1" value="0" leadInLength="0/1"  />
                     </VectorParam>
                    </Transformer>
                    <Parameters>
                     <VectorParam id="389"  name="sourceCrop">
                      <InterpolatingParam id="390" interp="linr"  time="0/1" value="0" leadInLength="0/1"  />
                      <InterpolatingParam id="391" interp="linr"  time="0/1" value="0" leadInLength="0/1"  />
                      <InterpolatingParam id="392" interp="linr"  time="0/1" value="0" leadInLength="0/1"  />
                      <InterpolatingParam id="393" interp="linr"  time="0/1" value="0" leadInLength="0/1"  />
                     </VectorParam>
                     <VectorParam id="394"  name="geometryCrop">
                      <InterpolatingParam id="395" interp="linr"  time="0/1" value="0" leadInLength="0/1"  />
                      <InterpolatingParam id="396" interp="linr"  time="0/1" value="0" leadInLength="0/1"  />
                      <InterpolatingParam id="397" interp="linr"  time="0/1" value="0" leadInLength="0/1"  />
                      <InterpolatingParam id="398" interp="linr"  time="0/1" value="0" leadInLength="0/1"  />
                     </VectorParam>
                     <InterpolatingParam id="399" interp="linr"  time="0/1" value="1" leadInLength="0/1"  name="opacity"/>
                    </Parameters>
                    <Effects>
                     <GenericEffect id="400" name = "VisualTransition" >
                      <Parameters>
                      <InterpolatingParam id="401" interp="linr"  time="0/1" value="1" leadInLength="0/1"   name="leftFramePercentage"/>
                      <InterpolatingParam id="402" interp="linr"  time="0/1" value="1" leadInLength="0/1"   name="rightFramePercentage"/>
                      <Parameter id="403"   name="visualEdgeModType">
                       <Keyframes>
                       <Keyframe id="404"  time="0/1" value="0" leadInLength="0/1"  />
                       </Keyframes>
                      </Parameter>
                      <Parameter id="405"   name="visualTransitionType">
                       <Keyframes>
                       <Keyframe id="406"  time="0/1" value="Fade" leadInLength="0/1"  />
                       </Keyframes>
                      </Parameter>
                      </Parameters>
                      <MetaData>
                      </MetaData>
                     </GenericEffect>
                    </Effects>
                    <Attributes>
                     <Attribute id="407" value="" name="ident"/>
                    </Attributes>
                    <ExtraData>
                     <Entry key="ZoomPanBin">
                      <ZoomPanBin id="408"  >
                       <ZoomPanKeyframes>
                       </ZoomPanKeyframes>
                      </ZoomPanBin>
                     </Entry>
                    </ExtraData>
                   </ImageTransition>
                   <MetaData>
                    <entry key="WinSubProjectDisplayName" val=""/>
                   </MetaData>
                  </UnifiedMedia>
                  <IMFile id="409" start="114" duration="2" scalar="1/1" mediaStart="0/1" mediaDuration="1/1" trackNumber="0" src="7" trimStartSum="2/1" >
                   <Transformer>
                    <VectorParam id="410"  name="translation">
                     <InterpolatingParam id="411" interp="linr"  time="-9999999/1" value="0" leadInLength="0/1"  />
                     <InterpolatingParam id="412" interp="linr"  time="-9999999/1" value="0" leadInLength="0/1"  />
                     <InterpolatingParam id="413" interp="linr"  time="-9999999/1" value="0" leadInLength="0/1"  />
                    </VectorParam>
                    <VectorParam id="414"  name="rotation">
                     <InterpolatingParam id="415" interp="linr"  time="-9999999/1" value="0" leadInLength="0/1"  />
                     <InterpolatingParam id="416" interp="linr"  time="-9999999/1" value="0" leadInLength="0/1"  />
                     <InterpolatingParam id="417" interp="linr"  time="-9999999/1" value="0" leadInLength="0/1"  />
                    </VectorParam>
                    <VectorParam id="418"  name="shear">
                     <InterpolatingParam id="419" interp="linr"  time="-9999999/1" value="0" leadInLength="0/1"  />
                     <InterpolatingParam id="420" interp="linr"  time="-9999999/1" value="0" leadInLength="0/1"  />
                     <InterpolatingParam id="421" interp="linr"  time="-9999999/1" value="0" leadInLength="0/1"  />
                    </VectorParam>
                    <VectorParam id="422"  name="scale">
                     <InterpolatingParam id="423" interp="linr"  time="-9999999/1" value="1" leadInLength="0/1"  />
                     <InterpolatingParam id="424" interp="linr"  time="-9999999/1" value="1" leadInLength="0/1"  />
                     <InterpolatingParam id="425" interp="linr"  time="-9999999/1" value="1" leadInLength="0/1"  />
                    </VectorParam>
                    <VectorParam id="426"  name="anchor">
                     <InterpolatingParam id="427" interp="linr"  time="0/1" value="0" leadInLength="0/1"  />
                     <InterpolatingParam id="428" interp="linr"  time="0/1" value="0" leadInLength="0/1"  />
                     <InterpolatingParam id="429" interp="linr"  time="0/1" value="0" leadInLength="0/1"  />
                    </VectorParam>
                   </Transformer>
                   <Parameters>
                    <VectorParam id="430"  name="sourceCrop">
                     <InterpolatingParam id="431" interp="linr"  time="0/1" value="0" leadInLength="0/1"  />
                     <InterpolatingParam id="432" interp="linr"  time="0/1" value="0" leadInLength="0/1"  />
                     <InterpolatingParam id="433" interp="linr"  time="0/1" value="0" leadInLength="0/1"  />
                     <InterpolatingParam id="434" interp="linr"  time="0/1" value="0" leadInLength="0/1"  />
                    </VectorParam>
                    <VectorParam id="435"  name="geometryCrop">
                     <InterpolatingParam id="436" interp="linr"  time="-9999999/1" value="0" leadInLength="0/1"  />
                     <InterpolatingParam id="437" interp="linr"  time="-9999999/1" value="0" leadInLength="0/1"  />
                     <InterpolatingParam id="438" interp="linr"  time="-9999999/1" value="0" leadInLength="0/1"  />
                     <InterpolatingParam id="439" interp="linr"  time="-9999999/1" value="0" leadInLength="0/1"  />
                    </VectorParam>
                    <InterpolatingParam id="440" interp="linr"  time="-9999999/1" value="1" leadInLength="0/1"  name="opacity"/>
                   </Parameters>
                   <Attributes>
                    <Attribute id="441" value="" name="ident"/>
                   </Attributes>
                   <MetaData>
                    <entry key="WinSubProjectDisplayName" val=""/>
                   </MetaData>
                   <ExtraData>
                    <Entry key="ZoomPanBin">
                     <ZoomPanBin id="442"  >
                      <ZoomPanKeyframes>
                       <ZoomPanKeyframe id="443" timeRangeEnd="-9999999/1" timeRangeDuration="0/1" interpolaterName="linr"  />
                      </ZoomPanKeyframes>
                     </ZoomPanBin>
                    </Entry>
                   </ExtraData>
                  </IMFile>
                  <UnifiedMedia id="444"  >
                   <AudioTransition id="445" start="116" duration="4" >
                    <Parameters>
                     <InterpolatingParam id="446" interp="linr"  time="0/1" value="1" leadInLength="0/1"  name="volume"/>
                     <Parameter id="447"  name="captions"/>
                    </Parameters>
                    <Effects>
                     <GenericEffect id="448" name = "AudioTransition" >
                      <Parameters>
                      <Parameter id="449"   name="audioEdgeModType">
                       <Keyframes>
                       <Keyframe id="450"  time="0/1" value="0" leadInLength="0/1"  />
                       </Keyframes>
                      </Parameter>
                      <Parameter id="451"   name="audioTransitionType">
                       <Keyframes>
                       <Keyframe id="452"  time="0/1" value="" leadInLength="0/1"  />
                       </Keyframes>
                      </Parameter>
                      </Parameters>
                      <MetaData>
                      </MetaData>
                     </GenericEffect>
                    </Effects>
                    <Attributes>
                     <Attribute id="453" value="" name="ident"/>
                     <Attribute id="454" value="0" name="sampleRate"/>
                     <Attribute id="455" value="0" name="bitDepth"/>
                     <Attribute id="456" value="1" name="gain"/>
                     <Attribute id="457" value="0" name="mixToMono"/>
                    </Attributes>
                   </AudioTransition>
                   <ImageTransition id="458" start="116" duration="4" >
                    <Transformer>
                     <VectorParam id="459"  name="translation">
                      <InterpolatingParam id="460" interp="linr"  time="0/1" value="0" leadInLength="0/1"  />
                      <InterpolatingParam id="461" interp="linr"  time="0/1" value="0" leadInLength="0/1"  />
                      <InterpolatingParam id="462" interp="linr"  time="0/1" value="0" leadInLength="0/1"  />
                     </VectorParam>
                     <VectorParam id="463"  name="rotation">
                      <InterpolatingParam id="464" interp="linr"  time="0/1" value="0" leadInLength="0/1"  />
                      <InterpolatingParam id="465" interp="linr"  time="0/1" value="0" leadInLength="0/1"  />
                      <InterpolatingParam id="466" interp="linr"  time="0/1" value="0" leadInLength="0/1"  />
                     </VectorParam>
                     <VectorParam id="467"  name="shear">
                      <InterpolatingParam id="468" interp="linr"  time="0/1" value="0" leadInLength="0/1"  />
                      <InterpolatingParam id="469" interp="linr"  time="0/1" value="0" leadInLength="0/1"  />
                      <InterpolatingParam id="470" interp="linr"  time="0/1" value="0" leadInLength="0/1"  />
                     </VectorParam>
                     <VectorParam id="471"  name="scale">
                      <InterpolatingParam id="472" interp="linr"  time="0/1" value="1" leadInLength="0/1"  />
                      <InterpolatingParam id="473" interp="linr"  time="0/1" value="1" leadInLength="0/1"  />
                      <InterpolatingParam id="474" interp="linr"  time="0/1" value="1" leadInLength="0/1"  />
                     </VectorParam>
                     <VectorParam id="475"  name="anchor">
                      <InterpolatingParam id="476" interp="linr"  time="0/1" value="0" leadInLength="0/1"  />
                      <InterpolatingParam id="477" interp="linr"  time="0/1" value="0" leadInLength="0/1"  />
                      <InterpolatingParam id="478" interp="linr"  time="0/1" value="0" leadInLength="0/1"  />
                     </VectorParam>
                    </Transformer>
                    <Parameters>
                     <VectorParam id="479"  name="sourceCrop">
                      <InterpolatingParam id="480" interp="linr"  time="0/1" value="0" leadInLength="0/1"  />
                      <InterpolatingParam id="481" interp="linr"  time="0/1" value="0" leadInLength="0/1"  />
                      <InterpolatingParam id="482" interp="linr"  time="0/1" value="0" leadInLength="0/1"  />
                      <InterpolatingParam id="483" interp="linr"  time="0/1" value="0" leadInLength="0/1"  />
                     </VectorParam>
                     <VectorParam id="484"  name="geometryCrop">
                      <InterpolatingParam id="485" interp="linr"  time="0/1" value="0" leadInLength="0/1"  />
                      <InterpolatingParam id="486" interp="linr"  time="0/1" value="0" leadInLength="0/1"  />
                      <InterpolatingParam id="487" interp="linr"  time="0/1" value="0" leadInLength="0/1"  />
                      <InterpolatingParam id="488" interp="linr"  time="0/1" value="0" leadInLength="0/1"  />
                     </VectorParam>
                     <InterpolatingParam id="489" interp="linr"  time="0/1" value="1" leadInLength="0/1"  name="opacity"/>
                    </Parameters>
                    <Effects>
                     <GenericEffect id="490" name = "VisualTransition" >
                      <Parameters>
                      <InterpolatingParam id="491" interp="linr"  time="0/1" value="1" leadInLength="0/1"   name="leftFramePercentage"/>
                      <InterpolatingParam id="492" interp="linr"  time="0/1" value="1" leadInLength="0/1"   name="rightFramePercentage"/>
                      <Parameter id="493"   name="visualEdgeModType">
                       <Keyframes>
                       <Keyframe id="494"  time="0/1" value="0" leadInLength="0/1"  />
                       </Keyframes>
                      </Parameter>
                      <Parameter id="495"   name="visualTransitionType">
                       <Keyframes>
                       <Keyframe id="496"  time="0/1" value="Fade" leadInLength="0/1"  />
                       </Keyframes>
                      </Parameter>
                      </Parameters>
                      <MetaData>
                      </MetaData>
                     </GenericEffect>
                    </Effects>
                    <Attributes>
                     <Attribute id="497" value="" name="ident"/>
                    </Attributes>
                    <ExtraData>
                     <Entry key="ZoomPanBin">
                      <ZoomPanBin id="498"  >
                       <ZoomPanKeyframes>
                       </ZoomPanKeyframes>
                      </ZoomPanBin>
                     </Entry>
                    </ExtraData>
                   </ImageTransition>
                   <MetaData>
                    <entry key="WinSubProjectDisplayName" val=""/>
                   </MetaData>
                  </UnifiedMedia>
                  <IMFile id="499" start="120" duration="2" scalar="1/1" mediaStart="0/1" mediaDuration="1/1" trackNumber="0" src="8" trimStartSum="2/1" >
                   <Transformer>
                    <VectorParam id="500"  name="translation">
                     <InterpolatingParam id="501" interp="linr"  time="-9999999/1" value="0" leadInLength="0/1"  />
                     <InterpolatingParam id="502" interp="linr"  time="-9999999/1" value="0" leadInLength="0/1"  />
                     <InterpolatingParam id="503" interp="linr"  time="-9999999/1" value="0" leadInLength="0/1"  />
                    </VectorParam>
                    <VectorParam id="504"  name="rotation">
                     <InterpolatingParam id="505" interp="linr"  time="-9999999/1" value="0" leadInLength="0/1"  />
                     <InterpolatingParam id="506" interp="linr"  time="-9999999/1" value="0" leadInLength="0/1"  />
                     <InterpolatingParam id="507" interp="linr"  time="-9999999/1" value="0" leadInLength="0/1"  />
                    </VectorParam>
                    <VectorParam id="508"  name="shear">
                     <InterpolatingParam id="509" interp="linr"  time="-9999999/1" value="0" leadInLength="0/1"  />
                     <InterpolatingParam id="510" interp="linr"  time="-9999999/1" value="0" leadInLength="0/1"  />
                     <InterpolatingParam id="511" interp="linr"  time="-9999999/1" value="0" leadInLength="0/1"  />
                    </VectorParam>
                    <VectorParam id="512"  name="scale">
                     <InterpolatingParam id="513" interp="linr"  time="-9999999/1" value="1" leadInLength="0/1"  />
                     <InterpolatingParam id="514" interp="linr"  time="-9999999/1" value="1" leadInLength="0/1"  />
                     <InterpolatingParam id="515" interp="linr"  time="-9999999/1" value="1" leadInLength="0/1"  />
                    </VectorParam>
                    <VectorParam id="516"  name="anchor">
                     <InterpolatingParam id="517" interp="linr"  time="0/1" value="0" leadInLength="0/1"  />
                     <InterpolatingParam id="518" interp="linr"  time="0/1" value="0" leadInLength="0/1"  />
                     <InterpolatingParam id="519" interp="linr"  time="0/1" value="0" leadInLength="0/1"  />
                    </VectorParam>
                   </Transformer>
                   <Parameters>
                    <VectorParam id="520"  name="sourceCrop">
                     <InterpolatingParam id="521" interp="linr"  time="0/1" value="0" leadInLength="0/1"  />
                     <InterpolatingParam id="522" interp="linr"  time="0/1" value="0" leadInLength="0/1"  />
                     <InterpolatingParam id="523" interp="linr"  time="0/1" value="0" leadInLength="0/1"  />
                     <InterpolatingParam id="524" interp="linr"  time="0/1" value="0" leadInLength="0/1"  />
                    </VectorParam>
                    <VectorParam id="525"  name="geometryCrop">
                     <InterpolatingParam id="526" interp="linr"  time="-9999999/1" value="0" leadInLength="0/1"  />
                     <InterpolatingParam id="527" interp="linr"  time="-9999999/1" value="0" leadInLength="0/1"  />
                     <InterpolatingParam id="528" interp="linr"  time="-9999999/1" value="0" leadInLength="0/1"  />
                     <InterpolatingParam id="529" interp="linr"  time="-9999999/1" value="0" leadInLength="0/1"  />
                    </VectorParam>
                    <InterpolatingParam id="530" interp="linr"  time="-9999999/1" value="1" leadInLength="0/1"  name="opacity"/>
                   </Parameters>
                   <Attributes>
                    <Attribute id="531" value="" name="ident"/>
                   </Attributes>
                   <MetaData>
                    <entry key="WinSubProjectDisplayName" val=""/>
                   </MetaData>
                   <ExtraData>
                    <Entry key="ZoomPanBin">
                     <ZoomPanBin id="532"  >
                      <ZoomPanKeyframes>
                       <ZoomPanKeyframe id="533" timeRangeEnd="-9999999/1" timeRangeDuration="0/1" interpolaterName="linr"  />
                      </ZoomPanKeyframes>
                     </ZoomPanBin>
                    </Entry>
                   </ExtraData>
                  </IMFile>
                  <UnifiedMedia id="534"  >
                   <AudioTransition id="535" start="122" duration="4" >
                    <Parameters>
                     <InterpolatingParam id="536" interp="linr"  time="0/1" value="1" leadInLength="0/1"  name="volume"/>
                     <Parameter id="537"  name="captions"/>
                    </Parameters>
                    <Effects>
                     <GenericEffect id="538" name = "AudioTransition" >
                      <Parameters>
                      <Parameter id="539"   name="audioEdgeModType">
                       <Keyframes>
                       <Keyframe id="540"  time="0/1" value="0" leadInLength="0/1"  />
                       </Keyframes>
                      </Parameter>
                      <Parameter id="541"   name="audioTransitionType">
                       <Keyframes>
                       <Keyframe id="542"  time="0/1" value="" leadInLength="0/1"  />
                       </Keyframes>
                      </Parameter>
                      </Parameters>
                      <MetaData>
                      </MetaData>
                     </GenericEffect>
                    </Effects>
                    <Attributes>
                     <Attribute id="543" value="" name="ident"/>
                     <Attribute id="544" value="0" name="sampleRate"/>
                     <Attribute id="545" value="0" name="bitDepth"/>
                     <Attribute id="546" value="1" name="gain"/>
                     <Attribute id="547" value="0" name="mixToMono"/>
                    </Attributes>
                   </AudioTransition>
                   <ImageTransition id="548" start="122" duration="4" >
                    <Transformer>
                     <VectorParam id="549"  name="translation">
                      <InterpolatingParam id="550" interp="linr"  time="0/1" value="0" leadInLength="0/1"  />
                      <InterpolatingParam id="551" interp="linr"  time="0/1" value="0" leadInLength="0/1"  />
                      <InterpolatingParam id="552" interp="linr"  time="0/1" value="0" leadInLength="0/1"  />
                     </VectorParam>
                     <VectorParam id="553"  name="rotation">
                      <InterpolatingParam id="554" interp="linr"  time="0/1" value="0" leadInLength="0/1"  />
                      <InterpolatingParam id="555" interp="linr"  time="0/1" value="0" leadInLength="0/1"  />
                      <InterpolatingParam id="556" interp="linr"  time="0/1" value="0" leadInLength="0/1"  />
                     </VectorParam>
                     <VectorParam id="557"  name="shear">
                      <InterpolatingParam id="558" interp="linr"  time="0/1" value="0" leadInLength="0/1"  />
                      <InterpolatingParam id="559" interp="linr"  time="0/1" value="0" leadInLength="0/1"  />
                      <InterpolatingParam id="560" interp="linr"  time="0/1" value="0" leadInLength="0/1"  />
                     </VectorParam>
                     <VectorParam id="561"  name="scale">
                      <InterpolatingParam id="562" interp="linr"  time="0/1" value="1" leadInLength="0/1"  />
                      <InterpolatingParam id="563" interp="linr"  time="0/1" value="1" leadInLength="0/1"  />
                      <InterpolatingParam id="564" interp="linr"  time="0/1" value="1" leadInLength="0/1"  />
                     </VectorParam>
                     <VectorParam id="565"  name="anchor">
                      <InterpolatingParam id="566" interp="linr"  time="0/1" value="0" leadInLength="0/1"  />
                      <InterpolatingParam id="567" interp="linr"  time="0/1" value="0" leadInLength="0/1"  />
                      <InterpolatingParam id="568" interp="linr"  time="0/1" value="0" leadInLength="0/1"  />
                     </VectorParam>
                    </Transformer>
                    <Parameters>
                     <VectorParam id="569"  name="sourceCrop">
                      <InterpolatingParam id="570" interp="linr"  time="0/1" value="0" leadInLength="0/1"  />
                      <InterpolatingParam id="571" interp="linr"  time="0/1" value="0" leadInLength="0/1"  />
                      <InterpolatingParam id="572" interp="linr"  time="0/1" value="0" leadInLength="0/1"  />
                      <InterpolatingParam id="573" interp="linr"  time="0/1" value="0" leadInLength="0/1"  />
                     </VectorParam>
                     <VectorParam id="574"  name="geometryCrop">
                      <InterpolatingParam id="575" interp="linr"  time="0/1" value="0" leadInLength="0/1"  />
                      <InterpolatingParam id="576" interp="linr"  time="0/1" value="0" leadInLength="0/1"  />
                      <InterpolatingParam id="577" interp="linr"  time="0/1" value="0" leadInLength="0/1"  />
                      <InterpolatingParam id="578" interp="linr"  time="0/1" value="0" leadInLength="0/1"  />
                     </VectorParam>
                     <InterpolatingParam id="579" interp="linr"  time="0/1" value="1" leadInLength="0/1"  name="opacity"/>
                    </Parameters>
                    <Effects>
                     <GenericEffect id="580" name = "VisualTransition" >
                      <Parameters>
                      <InterpolatingParam id="581" interp="linr"  time="0/1" value="1" leadInLength="0/1"   name="leftFramePercentage"/>
                      <InterpolatingParam id="582" interp="linr"  time="0/1" value="1" leadInLength="0/1"   name="rightFramePercentage"/>
                      <Parameter id="583"   name="visualEdgeModType">
                       <Keyframes>
                       <Keyframe id="584"  time="0/1" value="0" leadInLength="0/1"  />
                       </Keyframes>
                      </Parameter>
                      <Parameter id="585"   name="visualTransitionType">
                       <Keyframes>
                       <Keyframe id="586"  time="0/1" value="Fade" leadInLength="0/1"  />
                       </Keyframes>
                      </Parameter>
                      </Parameters>
                      <MetaData>
                      </MetaData>
                     </GenericEffect>
                    </Effects>
                    <Attributes>
                     <Attribute id="587" value="" name="ident"/>
                    </Attributes>
                    <ExtraData>
                     <Entry key="ZoomPanBin">
                      <ZoomPanBin id="588"  >
                       <ZoomPanKeyframes>
                       </ZoomPanKeyframes>
                      </ZoomPanBin>
                     </Entry>
                    </ExtraData>
                   </ImageTransition>
                   <MetaData>
                    <entry key="WinSubProjectDisplayName" val=""/>
                   </MetaData>
                  </UnifiedMedia>
                  <IMFile id="589" start="126" duration="4" scalar="1/1" mediaStart="0/1" mediaDuration="1/1" trackNumber="0" src="9" trimStartSum="2/1" >
                   <Transformer>
                    <VectorParam id="590"  name="translation">
                     <InterpolatingParam id="591" interp="linr"  time="-9999999/1" value="0" leadInLength="0/1"  />
                     <InterpolatingParam id="592" interp="linr"  time="-9999999/1" value="0" leadInLength="0/1"  />
                     <InterpolatingParam id="593" interp="linr"  time="-9999999/1" value="0" leadInLength="0/1"  />
                    </VectorParam>
                    <VectorParam id="594"  name="rotation">
                     <InterpolatingParam id="595" interp="linr"  time="-9999999/1" value="0" leadInLength="0/1"  />
                     <InterpolatingParam id="596" interp="linr"  time="-9999999/1" value="0" leadInLength="0/1"  />
                     <InterpolatingParam id="597" interp="linr"  time="-9999999/1" value="0" leadInLength="0/1"  />
                    </VectorParam>
                    <VectorParam id="598"  name="shear">
                     <InterpolatingParam id="599" interp="linr"  time="-9999999/1" value="0" leadInLength="0/1"  />
                     <InterpolatingParam id="600" interp="linr"  time="-9999999/1" value="0" leadInLength="0/1"  />
                     <InterpolatingParam id="601" interp="linr"  time="-9999999/1" value="0" leadInLength="0/1"  />
                    </VectorParam>
                    <VectorParam id="602"  name="scale">
                     <InterpolatingParam id="603" interp="linr"  time="-9999999/1" value="1" leadInLength="0/1"  />
                     <InterpolatingParam id="604" interp="linr"  time="-9999999/1" value="1" leadInLength="0/1"  />
                     <InterpolatingParam id="605" interp="linr"  time="-9999999/1" value="1" leadInLength="0/1"  />
                    </VectorParam>
                    <VectorParam id="606"  name="anchor">
                     <InterpolatingParam id="607" interp="linr"  time="0/1" value="0" leadInLength="0/1"  />
                     <InterpolatingParam id="608" interp="linr"  time="0/1" value="0" leadInLength="0/1"  />
                     <InterpolatingParam id="609" interp="linr"  time="0/1" value="0" leadInLength="0/1"  />
                    </VectorParam>
                   </Transformer>
                   <Parameters>
                    <VectorParam id="610"  name="sourceCrop">
                     <InterpolatingParam id="611" interp="linr"  time="0/1" value="0" leadInLength="0/1"  />
                     <InterpolatingParam id="612" interp="linr"  time="0/1" value="0" leadInLength="0/1"  />
                     <InterpolatingParam id="613" interp="linr"  time="0/1" value="0" leadInLength="0/1"  />
                     <InterpolatingParam id="614" interp="linr"  time="0/1" value="0" leadInLength="0/1"  />
                    </VectorParam>
                    <VectorParam id="615"  name="geometryCrop">
                     <InterpolatingParam id="616" interp="linr"  time="-9999999/1" value="0" leadInLength="0/1"  />
                     <InterpolatingParam id="617" interp="linr"  time="-9999999/1" value="0" leadInLength="0/1"  />
                     <InterpolatingParam id="618" interp="linr"  time="-9999999/1" value="0" leadInLength="0/1"  />
                     <InterpolatingParam id="619" interp="linr"  time="-9999999/1" value="0" leadInLength="0/1"  />
                    </VectorParam>
                    <InterpolatingParam id="620" interp="linr"  time="-9999999/1" value="1" leadInLength="0/1"  name="opacity"/>
                   </Parameters>
                   <Attributes>
                    <Attribute id="621" value="" name="ident"/>
                   </Attributes>
                   <MetaData>
                    <entry key="WinSubProjectDisplayName" val=""/>
                   </MetaData>
                   <ExtraData>
                    <Entry key="ZoomPanBin">
                     <ZoomPanBin id="622"  >
                      <ZoomPanKeyframes>
                       <ZoomPanKeyframe id="623" timeRangeEnd="-9999999/1" timeRangeDuration="0/1" interpolaterName="linr"  />
                      </ZoomPanKeyframes>
                     </ZoomPanBin>
                    </Entry>
                   </ExtraData>
                  </IMFile>
                  <IMFile id="624" start="130" duration="2" scalar="1/1" mediaStart="0/1" mediaDuration="1/1" trackNumber="0" src="10" trimStartSum="0/1" >
                   <Transformer>
                    <VectorParam id="625"  name="translation">
                     <InterpolatingParam id="626" interp="linr"  time="-9999999/1" value="0" leadInLength="0/1"  />
                     <InterpolatingParam id="627" interp="linr"  time="-9999999/1" value="0" leadInLength="0/1"  />
                     <InterpolatingParam id="628" interp="linr"  time="-9999999/1" value="0" leadInLength="0/1"  />
                    </VectorParam>
                    <VectorParam id="629"  name="rotation">
                     <InterpolatingParam id="630" interp="linr"  time="-9999999/1" value="0" leadInLength="0/1"  />
                     <InterpolatingParam id="631" interp="linr"  time="-9999999/1" value="0" leadInLength="0/1"  />
                     <InterpolatingParam id="632" interp="linr"  time="-9999999/1" value="0" leadInLength="0/1"  />
                    </VectorParam>
                    <VectorParam id="633"  name="shear">
                     <InterpolatingParam id="634" interp="linr"  time="-9999999/1" value="0" leadInLength="0/1"  />
                     <InterpolatingParam id="635" interp="linr"  time="-9999999/1" value="0" leadInLength="0/1"  />
                     <InterpolatingParam id="636" interp="linr"  time="-9999999/1" value="0" leadInLength="0/1"  />
                    </VectorParam>
                    <VectorParam id="637"  name="scale">
                     <InterpolatingParam id="638" interp="linr"  time="-9999999/1" value="1" leadInLength="0/1"  />
                     <InterpolatingParam id="639" interp="linr"  time="-9999999/1" value="1" leadInLength="0/1"  />
                     <InterpolatingParam id="640" interp="linr"  time="-9999999/1" value="1" leadInLength="0/1"  />
                    </VectorParam>
                    <VectorParam id="641"  name="anchor">
                     <InterpolatingParam id="642" interp="linr"  time="0/1" value="0" leadInLength="0/1"  />
                     <InterpolatingParam id="643" interp="linr"  time="0/1" value="0" leadInLength="0/1"  />
                     <InterpolatingParam id="644" interp="linr"  time="0/1" value="0" leadInLength="0/1"  />
                    </VectorParam>
                   </Transformer>
                   <Parameters>
                    <VectorParam id="645"  name="sourceCrop">
                     <InterpolatingParam id="646" interp="linr"  time="0/1" value="0" leadInLength="0/1"  />
                     <InterpolatingParam id="647" interp="linr"  time="0/1" value="0" leadInLength="0/1"  />
                     <InterpolatingParam id="648" interp="linr"  time="0/1" value="0" leadInLength="0/1"  />
                     <InterpolatingParam id="649" interp="linr"  time="0/1" value="0" leadInLength="0/1"  />
                    </VectorParam>
                    <VectorParam id="650"  name="geometryCrop">
                     <InterpolatingParam id="651" interp="linr"  time="-9999999/1" value="0" leadInLength="0/1"  />
                     <InterpolatingParam id="652" interp="linr"  time="-9999999/1" value="0" leadInLength="0/1"  />
                     <InterpolatingParam id="653" interp="linr"  time="-9999999/1" value="0" leadInLength="0/1"  />
                     <InterpolatingParam id="654" interp="linr"  time="-9999999/1" value="0" leadInLength="0/1"  />
                    </VectorParam>
                    <InterpolatingParam id="655" interp="linr"  time="-9999999/1" value="1" leadInLength="0/1"  name="opacity"/>
                   </Parameters>
                   <Attributes>
                    <Attribute id="656" value="" name="ident"/>
                   </Attributes>
                   <MetaData>
                    <entry key="WinSubProjectDisplayName" val=""/>
                   </MetaData>
                   <ExtraData>
                    <Entry key="ZoomPanBin">
                     <ZoomPanBin id="657"  >
                      <ZoomPanKeyframes>
                       <ZoomPanKeyframe id="658" timeRangeEnd="-9999999/1" timeRangeDuration="0/1" interpolaterName="linr"  />
                      </ZoomPanKeyframes>
                     </ZoomPanBin>
                    </Entry>
                   </ExtraData>
                  </IMFile>
                  <IMFile id="659" start="132" duration="2" scalar="1/1" mediaStart="0/1" mediaDuration="1/1" trackNumber="0" src="11" trimStartSum="0/1" >
                   <Transformer>
                    <VectorParam id="660"  name="translation">
                     <InterpolatingParam id="661" interp="linr"  time="-9999999/1" value="0" leadInLength="0/1"  />
                     <InterpolatingParam id="662" interp="linr"  time="-9999999/1" value="0" leadInLength="0/1"  />
                     <InterpolatingParam id="663" interp="linr"  time="-9999999/1" value="0" leadInLength="0/1"  />
                    </VectorParam>
                    <VectorParam id="664"  name="rotation">
                     <InterpolatingParam id="665" interp="linr"  time="-9999999/1" value="0" leadInLength="0/1"  />
                     <InterpolatingParam id="666" interp="linr"  time="-9999999/1" value="0" leadInLength="0/1"  />
                     <InterpolatingParam id="667" interp="linr"  time="-9999999/1" value="0" leadInLength="0/1"  />
                    </VectorParam>
                    <VectorParam id="668"  name="shear">
                     <InterpolatingParam id="669" interp="linr"  time="-9999999/1" value="0" leadInLength="0/1"  />
                     <InterpolatingParam id="670" interp="linr"  time="-9999999/1" value="0" leadInLength="0/1"  />
                     <InterpolatingParam id="671" interp="linr"  time="-9999999/1" value="0" leadInLength="0/1"  />
                    </VectorParam>
                    <VectorParam id="672"  name="scale">
                     <InterpolatingParam id="673" interp="linr"  time="-9999999/1" value="1" leadInLength="0/1"  />
                     <InterpolatingParam id="674" interp="linr"  time="-9999999/1" value="1" leadInLength="0/1"  />
                     <InterpolatingParam id="675" interp="linr"  time="-9999999/1" value="1" leadInLength="0/1"  />
                    </VectorParam>
                    <VectorParam id="676"  name="anchor">
                     <InterpolatingParam id="677" interp="linr"  time="0/1" value="0" leadInLength="0/1"  />
                     <InterpolatingParam id="678" interp="linr"  time="0/1" value="0" leadInLength="0/1"  />
                     <InterpolatingParam id="679" interp="linr"  time="0/1" value="0" leadInLength="0/1"  />
                    </VectorParam>
                   </Transformer>
                   <Parameters>
                    <VectorParam id="680"  name="sourceCrop">
                     <InterpolatingParam id="681" interp="linr"  time="0/1" value="0" leadInLength="0/1"  />
                     <InterpolatingParam id="682" interp="linr"  time="0/1" value="0" leadInLength="0/1"  />
                     <InterpolatingParam id="683" interp="linr"  time="0/1" value="0" leadInLength="0/1"  />
                     <InterpolatingParam id="684" interp="linr"  time="0/1" value="0" leadInLength="0/1"  />
                    </VectorParam>
                    <VectorParam id="685"  name="geometryCrop">
                     <InterpolatingParam id="686" interp="linr"  time="-9999999/1" value="0" leadInLength="0/1"  />
                     <InterpolatingParam id="687" interp="linr"  time="-9999999/1" value="0" leadInLength="0/1"  />
                     <InterpolatingParam id="688" interp="linr"  time="-9999999/1" value="0" leadInLength="0/1"  />
                     <InterpolatingParam id="689" interp="linr"  time="-9999999/1" value="0" leadInLength="0/1"  />
                    </VectorParam>
                    <InterpolatingParam id="690" interp="linr"  time="-9999999/1" value="1" leadInLength="0/1"  name="opacity"/>
                   </Parameters>
                   <Attributes>
                    <Attribute id="691" value="" name="ident"/>
                   </Attributes>
                   <MetaData>
                    <entry key="WinSubProjectDisplayName" val=""/>
                   </MetaData>
                   <ExtraData>
                    <Entry key="ZoomPanBin">
                     <ZoomPanBin id="692"  >
                      <ZoomPanKeyframes>
                       <ZoomPanKeyframe id="693" timeRangeEnd="-9999999/1" timeRangeDuration="0/1" interpolaterName="linr"  />
                      </ZoomPanKeyframes>
                     </ZoomPanBin>
                    </Entry>
                   </ExtraData>
                  </IMFile>
                  <IMFile id="694" start="134" duration="2" scalar="1/1" mediaStart="0/1" mediaDuration="1/1" trackNumber="0" src="12" trimStartSum="0/1" >
                   <Transformer>
                    <VectorParam id="695"  name="translation">
                     <InterpolatingParam id="696" interp="linr"  time="-9999999/1" value="0" leadInLength="0/1"  />
                     <InterpolatingParam id="697" interp="linr"  time="-9999999/1" value="0" leadInLength="0/1"  />
                     <InterpolatingParam id="698" interp="linr"  time="-9999999/1" value="0" leadInLength="0/1"  />
                    </VectorParam>
                    <VectorParam id="699"  name="rotation">
                     <InterpolatingParam id="700" interp="linr"  time="-9999999/1" value="0" leadInLength="0/1"  />
                     <InterpolatingParam id="701" interp="linr"  time="-9999999/1" value="0" leadInLength="0/1"  />
                     <InterpolatingParam id="702" interp="linr"  time="-9999999/1" value="0" leadInLength="0/1"  />
                    </VectorParam>
                    <VectorParam id="703"  name="shear">
                     <InterpolatingParam id="704" interp="linr"  time="-9999999/1" value="0" leadInLength="0/1"  />
                     <InterpolatingParam id="705" interp="linr"  time="-9999999/1" value="0" leadInLength="0/1"  />
                     <InterpolatingParam id="706" interp="linr"  time="-9999999/1" value="0" leadInLength="0/1"  />
                    </VectorParam>
                    <VectorParam id="707"  name="scale">
                     <InterpolatingParam id="708" interp="linr"  time="-9999999/1" value="1" leadInLength="0/1"  />
                     <InterpolatingParam id="709" interp="linr"  time="-9999999/1" value="1" leadInLength="0/1"  />
                     <InterpolatingParam id="710" interp="linr"  time="-9999999/1" value="1" leadInLength="0/1"  />
                    </VectorParam>
                    <VectorParam id="711"  name="anchor">
                     <InterpolatingParam id="712" interp="linr"  time="0/1" value="0" leadInLength="0/1"  />
                     <InterpolatingParam id="713" interp="linr"  time="0/1" value="0" leadInLength="0/1"  />
                     <InterpolatingParam id="714" interp="linr"  time="0/1" value="0" leadInLength="0/1"  />
                    </VectorParam>
                   </Transformer>
                   <Parameters>
                    <VectorParam id="715"  name="sourceCrop">
                     <InterpolatingParam id="716" interp="linr"  time="0/1" value="0" leadInLength="0/1"  />
                     <InterpolatingParam id="717" interp="linr"  time="0/1" value="0" leadInLength="0/1"  />
                     <InterpolatingParam id="718" interp="linr"  time="0/1" value="0" leadInLength="0/1"  />
                     <InterpolatingParam id="719" interp="linr"  time="0/1" value="0" leadInLength="0/1"  />
                    </VectorParam>
                    <VectorParam id="720"  name="geometryCrop">
                     <InterpolatingParam id="721" interp="linr"  time="-9999999/1" value="0" leadInLength="0/1"  />
                     <InterpolatingParam id="722" interp="linr"  time="-9999999/1" value="0" leadInLength="0/1"  />
                     <InterpolatingParam id="723" interp="linr"  time="-9999999/1" value="0" leadInLength="0/1"  />
                     <InterpolatingParam id="724" interp="linr"  time="-9999999/1" value="0" leadInLength="0/1"  />
                    </VectorParam>
                    <InterpolatingParam id="725" interp="linr"  time="-9999999/1" value="1" leadInLength="0/1"  name="opacity"/>
                   </Parameters>
                   <Attributes>
                    <Attribute id="726" value="" name="ident"/>
                   </Attributes>
                   <MetaData>
                    <entry key="WinSubProjectDisplayName" val=""/>
                   </MetaData>
                   <ExtraData>
                    <Entry key="ZoomPanBin">
                     <ZoomPanBin id="727"  >
                      <ZoomPanKeyframes>
                       <ZoomPanKeyframe id="728" timeRangeEnd="-9999999/1" timeRangeDuration="0/1" interpolaterName="linr"  />
                      </ZoomPanKeyframes>
                     </ZoomPanBin>
                    </Entry>
                   </ExtraData>
                  </IMFile>
                  <IMFile id="729" start="136" duration="2" scalar="1/1" mediaStart="0/1" mediaDuration="1/1" trackNumber="0" src="13" trimStartSum="0/1" >
                   <Transformer>
                    <VectorParam id="730"  name="translation">
                     <InterpolatingParam id="731" interp="linr"  time="-9999999/1" value="0" leadInLength="0/1"  />
                     <InterpolatingParam id="732" interp="linr"  time="-9999999/1" value="0" leadInLength="0/1"  />
                     <InterpolatingParam id="733" interp="linr"  time="-9999999/1" value="0" leadInLength="0/1"  />
                    </VectorParam>
                    <VectorParam id="734"  name="rotation">
                     <InterpolatingParam id="735" interp="linr"  time="-9999999/1" value="0" leadInLength="0/1"  />
                     <InterpolatingParam id="736" interp="linr"  time="-9999999/1" value="0" leadInLength="0/1"  />
                     <InterpolatingParam id="737" interp="linr"  time="-9999999/1" value="0" leadInLength="0/1"  />
                    </VectorParam>
                    <VectorParam id="738"  name="shear">
                     <InterpolatingParam id="739" interp="linr"  time="-9999999/1" value="0" leadInLength="0/1"  />
                     <InterpolatingParam id="740" interp="linr"  time="-9999999/1" value="0" leadInLength="0/1"  />
                     <InterpolatingParam id="741" interp="linr"  time="-9999999/1" value="0" leadInLength="0/1"  />
                    </VectorParam>
                    <VectorParam id="742"  name="scale">
                     <InterpolatingParam id="743" interp="linr"  time="-9999999/1" value="1" leadInLength="0/1"  />
                     <InterpolatingParam id="744" interp="linr"  time="-9999999/1" value="1" leadInLength="0/1"  />
                     <InterpolatingParam id="745" interp="linr"  time="-9999999/1" value="1" leadInLength="0/1"  />
                    </VectorParam>
                    <VectorParam id="746"  name="anchor">
                     <InterpolatingParam id="747" interp="linr"  time="0/1" value="0" leadInLength="0/1"  />
                     <InterpolatingParam id="748" interp="linr"  time="0/1" value="0" leadInLength="0/1"  />
                     <InterpolatingParam id="749" interp="linr"  time="0/1" value="0" leadInLength="0/1"  />
                    </VectorParam>
                   </Transformer>
                   <Parameters>
                    <VectorParam id="750"  name="sourceCrop">
                     <InterpolatingParam id="751" interp="linr"  time="0/1" value="0" leadInLength="0/1"  />
                     <InterpolatingParam id="752" interp="linr"  time="0/1" value="0" leadInLength="0/1"  />
                     <InterpolatingParam id="753" interp="linr"  time="0/1" value="0" leadInLength="0/1"  />
                     <InterpolatingParam id="754" interp="linr"  time="0/1" value="0" leadInLength="0/1"  />
                    </VectorParam>
                    <VectorParam id="755"  name="geometryCrop">
                     <InterpolatingParam id="756" interp="linr"  time="-9999999/1" value="0" leadInLength="0/1"  />
                     <InterpolatingParam id="757" interp="linr"  time="-9999999/1" value="0" leadInLength="0/1"  />
                     <InterpolatingParam id="758" interp="linr"  time="-9999999/1" value="0" leadInLength="0/1"  />
                     <InterpolatingParam id="759" interp="linr"  time="-9999999/1" value="0" leadInLength="0/1"  />
                    </VectorParam>
                    <InterpolatingParam id="760" interp="linr"  time="-9999999/1" value="1" leadInLength="0/1"  name="opacity"/>
                   </Parameters>
                   <Attributes>
                    <Attribute id="761" value="" name="ident"/>
                   </Attributes>
                   <MetaData>
                    <entry key="WinSubProjectDisplayName" val=""/>
                   </MetaData>
                   <ExtraData>
                    <Entry key="ZoomPanBin">
                     <ZoomPanBin id="762"  >
                      <ZoomPanKeyframes>
                       <ZoomPanKeyframe id="763" timeRangeEnd="-9999999/1" timeRangeDuration="0/1" interpolaterName="linr"  />
                      </ZoomPanKeyframes>
                     </ZoomPanBin>
                    </Entry>
                   </ExtraData>
                  </IMFile>
                  <IMFile id="764" start="138" duration="2" scalar="1/1" mediaStart="0/1" mediaDuration="1/1" trackNumber="0" src="14" trimStartSum="0/1" >
                   <Transformer>
                    <VectorParam id="765"  name="translation">
                     <InterpolatingParam id="766" interp="linr"  time="-9999999/1" value="0" leadInLength="0/1"  />
                     <InterpolatingParam id="767" interp="linr"  time="-9999999/1" value="0" leadInLength="0/1"  />
                     <InterpolatingParam id="768" interp="linr"  time="-9999999/1" value="0" leadInLength="0/1"  />
                    </VectorParam>
                    <VectorParam id="769"  name="rotation">
                     <InterpolatingParam id="770" interp="linr"  time="-9999999/1" value="0" leadInLength="0/1"  />
                     <InterpolatingParam id="771" interp="linr"  time="-9999999/1" value="0" leadInLength="0/1"  />
                     <InterpolatingParam id="772" interp="linr"  time="-9999999/1" value="0" leadInLength="0/1"  />
                    </VectorParam>
                    <VectorParam id="773"  name="shear">
                     <InterpolatingParam id="774" interp="linr"  time="-9999999/1" value="0" leadInLength="0/1"  />
                     <InterpolatingParam id="775" interp="linr"  time="-9999999/1" value="0" leadInLength="0/1"  />
                     <InterpolatingParam id="776" interp="linr"  time="-9999999/1" value="0" leadInLength="0/1"  />
                    </VectorParam>
                    <VectorParam id="777"  name="scale">
                     <InterpolatingParam id="778" interp="linr"  time="-9999999/1" value="1" leadInLength="0/1"  />
                     <InterpolatingParam id="779" interp="linr"  time="-9999999/1" value="1" leadInLength="0/1"  />
                     <InterpolatingParam id="780" interp="linr"  time="-9999999/1" value="1" leadInLength="0/1"  />
                    </VectorParam>
                    <VectorParam id="781"  name="anchor">
                     <InterpolatingParam id="782" interp="linr"  time="0/1" value="0" leadInLength="0/1"  />
                     <InterpolatingParam id="783" interp="linr"  time="0/1" value="0" leadInLength="0/1"  />
                     <InterpolatingParam id="784" interp="linr"  time="0/1" value="0" leadInLength="0/1"  />
                    </VectorParam>
                   </Transformer>
                   <Parameters>
                    <VectorParam id="785"  name="sourceCrop">
                     <InterpolatingParam id="786" interp="linr"  time="0/1" value="0" leadInLength="0/1"  />
                     <InterpolatingParam id="787" interp="linr"  time="0/1" value="0" leadInLength="0/1"  />
                     <InterpolatingParam id="788" interp="linr"  time="0/1" value="0" leadInLength="0/1"  />
                     <InterpolatingParam id="789" interp="linr"  time="0/1" value="0" leadInLength="0/1"  />
                    </VectorParam>
                    <VectorParam id="790"  name="geometryCrop">
                     <InterpolatingParam id="791" interp="linr"  time="-9999999/1" value="0" leadInLength="0/1"  />
                     <InterpolatingParam id="792" interp="linr"  time="-9999999/1" value="0" leadInLength="0/1"  />
                     <InterpolatingParam id="793" interp="linr"  time="-9999999/1" value="0" leadInLength="0/1"  />
                     <InterpolatingParam id="794" interp="linr"  time="-9999999/1" value="0" leadInLength="0/1"  />
                    </VectorParam>
                    <InterpolatingParam id="795" interp="linr"  time="-9999999/1" value="1" leadInLength="0/1"  name="opacity"/>
                   </Parameters>
                   <Attributes>
                    <Attribute id="796" value="" name="ident"/>
                   </Attributes>
                   <MetaData>
                    <entry key="WinSubProjectDisplayName" val=""/>
                   </MetaData>
                   <ExtraData>
                    <Entry key="ZoomPanBin">
                     <ZoomPanBin id="797"  >
                      <ZoomPanKeyframes>
                       <ZoomPanKeyframe id="798" timeRangeEnd="-9999999/1" timeRangeDuration="0/1" interpolaterName="linr"  />
                      </ZoomPanKeyframes>
                     </ZoomPanBin>
                    </Entry>
                   </ExtraData>
                  </IMFile>
                  <IMFile id="799" start="140" duration="2" scalar="1/1" mediaStart="0/1" mediaDuration="1/1" trackNumber="0" src="15" trimStartSum="0/1" >
                   <Transformer>
                    <VectorParam id="800"  name="translation">
                     <InterpolatingParam id="801" interp="linr"  time="-9999999/1" value="0" leadInLength="0/1"  />
                     <InterpolatingParam id="802" interp="linr"  time="-9999999/1" value="0" leadInLength="0/1"  />
                     <InterpolatingParam id="803" interp="linr"  time="-9999999/1" value="0" leadInLength="0/1"  />
                    </VectorParam>
                    <VectorParam id="804"  name="rotation">
                     <InterpolatingParam id="805" interp="linr"  time="-9999999/1" value="0" leadInLength="0/1"  />
                     <InterpolatingParam id="806" interp="linr"  time="-9999999/1" value="0" leadInLength="0/1"  />
                     <InterpolatingParam id="807" interp="linr"  time="-9999999/1" value="0" leadInLength="0/1"  />
                    </VectorParam>
                    <VectorParam id="808"  name="shear">
                     <InterpolatingParam id="809" interp="linr"  time="-9999999/1" value="0" leadInLength="0/1"  />
                     <InterpolatingParam id="810" interp="linr"  time="-9999999/1" value="0" leadInLength="0/1"  />
                     <InterpolatingParam id="811" interp="linr"  time="-9999999/1" value="0" leadInLength="0/1"  />
                    </VectorParam>
                    <VectorParam id="812"  name="scale">
                     <InterpolatingParam id="813" interp="linr"  time="-9999999/1" value="1" leadInLength="0/1"  />
                     <InterpolatingParam id="814" interp="linr"  time="-9999999/1" value="1" leadInLength="0/1"  />
                     <InterpolatingParam id="815" interp="linr"  time="-9999999/1" value="1" leadInLength="0/1"  />
                    </VectorParam>
                    <VectorParam id="816"  name="anchor">
                     <InterpolatingParam id="817" interp="linr"  time="0/1" value="0" leadInLength="0/1"  />
                     <InterpolatingParam id="818" interp="linr"  time="0/1" value="0" leadInLength="0/1"  />
                     <InterpolatingParam id="819" interp="linr"  time="0/1" value="0" leadInLength="0/1"  />
                    </VectorParam>
                   </Transformer>
                   <Parameters>
                    <VectorParam id="820"  name="sourceCrop">
                     <InterpolatingParam id="821" interp="linr"  time="0/1" value="0" leadInLength="0/1"  />
                     <InterpolatingParam id="822" interp="linr"  time="0/1" value="0" leadInLength="0/1"  />
                     <InterpolatingParam id="823" interp="linr"  time="0/1" value="0" leadInLength="0/1"  />
                     <InterpolatingParam id="824" interp="linr"  time="0/1" value="0" leadInLength="0/1"  />
                    </VectorParam>
                    <VectorParam id="825"  name="geometryCrop">
                     <InterpolatingParam id="826" interp="linr"  time="-9999999/1" value="0" leadInLength="0/1"  />
                     <InterpolatingParam id="827" interp="linr"  time="-9999999/1" value="0" leadInLength="0/1"  />
                     <InterpolatingParam id="828" interp="linr"  time="-9999999/1" value="0" leadInLength="0/1"  />
                     <InterpolatingParam id="829" interp="linr"  time="-9999999/1" value="0" leadInLength="0/1"  />
                    </VectorParam>
                    <InterpolatingParam id="830" interp="linr"  time="-9999999/1" value="1" leadInLength="0/1"  name="opacity"/>
                   </Parameters>
                   <Attributes>
                    <Attribute id="831" value="" name="ident"/>
                   </Attributes>
                   <MetaData>
                    <entry key="WinSubProjectDisplayName" val=""/>
                   </MetaData>
                   <ExtraData>
                    <Entry key="ZoomPanBin">
                     <ZoomPanBin id="832"  >
                      <ZoomPanKeyframes>
                       <ZoomPanKeyframe id="833" timeRangeEnd="-9999999/1" timeRangeDuration="0/1" interpolaterName="linr"  />
                      </ZoomPanKeyframes>
                     </ZoomPanBin>
                    </Entry>
                   </ExtraData>
                  </IMFile>
                  <IMFile id="834" start="142" duration="2" scalar="1/1" mediaStart="0/1" mediaDuration="1/1" trackNumber="0" src="16" trimStartSum="0/1" >
                   <Transformer>
                    <VectorParam id="835"  name="translation">
                     <InterpolatingParam id="836" interp="linr"  time="-9999999/1" value="0" leadInLength="0/1"  />
                     <InterpolatingParam id="837" interp="linr"  time="-9999999/1" value="0" leadInLength="0/1"  />
                     <InterpolatingParam id="838" interp="linr"  time="-9999999/1" value="0" leadInLength="0/1"  />
                    </VectorParam>
                    <VectorParam id="839"  name="rotation">
                     <InterpolatingParam id="840" interp="linr"  time="-9999999/1" value="0" leadInLength="0/1"  />
                     <InterpolatingParam id="841" interp="linr"  time="-9999999/1" value="0" leadInLength="0/1"  />
                     <InterpolatingParam id="842" interp="linr"  time="-9999999/1" value="0" leadInLength="0/1"  />
                    </VectorParam>
                    <VectorParam id="843"  name="shear">
                     <InterpolatingParam id="844" interp="linr"  time="-9999999/1" value="0" leadInLength="0/1"  />
                     <InterpolatingParam id="845" interp="linr"  time="-9999999/1" value="0" leadInLength="0/1"  />
                     <InterpolatingParam id="846" interp="linr"  time="-9999999/1" value="0" leadInLength="0/1"  />
                    </VectorParam>
                    <VectorParam id="847"  name="scale">
                     <InterpolatingParam id="848" interp="linr"  time="-9999999/1" value="1" leadInLength="0/1"  />
                     <InterpolatingParam id="849" interp="linr"  time="-9999999/1" value="1" leadInLength="0/1"  />
                     <InterpolatingParam id="850" interp="linr"  time="-9999999/1" value="1" leadInLength="0/1"  />
                    </VectorParam>
                    <VectorParam id="851"  name="anchor">
                     <InterpolatingParam id="852" interp="linr"  time="0/1" value="0" leadInLength="0/1"  />
                     <InterpolatingParam id="853" interp="linr"  time="0/1" value="0" leadInLength="0/1"  />
                     <InterpolatingParam id="854" interp="linr"  time="0/1" value="0" leadInLength="0/1"  />
                    </VectorParam>
                   </Transformer>
                   <Parameters>
                    <VectorParam id="855"  name="sourceCrop">
                     <InterpolatingParam id="856" interp="linr"  time="0/1" value="0" leadInLength="0/1"  />
                     <InterpolatingParam id="857" interp="linr"  time="0/1" value="0" leadInLength="0/1"  />
                     <InterpolatingParam id="858" interp="linr"  time="0/1" value="0" leadInLength="0/1"  />
                     <InterpolatingParam id="859" interp="linr"  time="0/1" value="0" leadInLength="0/1"  />
                    </VectorParam>
                    <VectorParam id="860"  name="geometryCrop">
                     <InterpolatingParam id="861" interp="linr"  time="-9999999/1" value="0" leadInLength="0/1"  />
                     <InterpolatingParam id="862" interp="linr"  time="-9999999/1" value="0" leadInLength="0/1"  />
                     <InterpolatingParam id="863" interp="linr"  time="-9999999/1" value="0" leadInLength="0/1"  />
                     <InterpolatingParam id="864" interp="linr"  time="-9999999/1" value="0" leadInLength="0/1"  />
                    </VectorParam>
                    <InterpolatingParam id="865" interp="linr"  time="-9999999/1" value="1" leadInLength="0/1"  name="opacity"/>
                   </Parameters>
                   <Attributes>
                    <Attribute id="866" value="" name="ident"/>
                   </Attributes>
                   <MetaData>
                    <entry key="WinSubProjectDisplayName" val=""/>
                   </MetaData>
                   <ExtraData>
                    <Entry key="ZoomPanBin">
                     <ZoomPanBin id="867"  >
                      <ZoomPanKeyframes>
                       <ZoomPanKeyframe id="868" timeRangeEnd="-9999999/1" timeRangeDuration="0/1" interpolaterName="linr"  />
                      </ZoomPanKeyframes>
                     </ZoomPanBin>
                    </Entry>
                   </ExtraData>
                  </IMFile>
                  <IMFile id="869" start="144" duration="2" scalar="1/1" mediaStart="0/1" mediaDuration="1/1" trackNumber="0" src="17" trimStartSum="0/1" >
                   <Transformer>
                    <VectorParam id="870"  name="translation">
                     <InterpolatingParam id="871" interp="linr"  time="-9999999/1" value="0" leadInLength="0/1"  />
                     <InterpolatingParam id="872" interp="linr"  time="-9999999/1" value="0" leadInLength="0/1"  />
                     <InterpolatingParam id="873" interp="linr"  time="-9999999/1" value="0" leadInLength="0/1"  />
                    </VectorParam>
                    <VectorParam id="874"  name="rotation">
                     <InterpolatingParam id="875" interp="linr"  time="-9999999/1" value="0" leadInLength="0/1"  />
                     <InterpolatingParam id="876" interp="linr"  time="-9999999/1" value="0" leadInLength="0/1"  />
                     <InterpolatingParam id="877" interp="linr"  time="-9999999/1" value="0" leadInLength="0/1"  />
                    </VectorParam>
                    <VectorParam id="878"  name="shear">
                     <InterpolatingParam id="879" interp="linr"  time="-9999999/1" value="0" leadInLength="0/1"  />
                     <InterpolatingParam id="880" interp="linr"  time="-9999999/1" value="0" leadInLength="0/1"  />
                     <InterpolatingParam id="881" interp="linr"  time="-9999999/1" value="0" leadInLength="0/1"  />
                    </VectorParam>
                    <VectorParam id="882"  name="scale">
                     <InterpolatingParam id="883" interp="linr"  time="-9999999/1" value="1" leadInLength="0/1"  />
                     <InterpolatingParam id="884" interp="linr"  time="-9999999/1" value="1" leadInLength="0/1"  />
                     <InterpolatingParam id="885" interp="linr"  time="-9999999/1" value="1" leadInLength="0/1"  />
                    </VectorParam>
                    <VectorParam id="886"  name="anchor">
                     <InterpolatingParam id="887" interp="linr"  time="0/1" value="0" leadInLength="0/1"  />
                     <InterpolatingParam id="888" interp="linr"  time="0/1" value="0" leadInLength="0/1"  />
                     <InterpolatingParam id="889" interp="linr"  time="0/1" value="0" leadInLength="0/1"  />
                    </VectorParam>
                   </Transformer>
                   <Parameters>
                    <VectorParam id="890"  name="sourceCrop">
                     <InterpolatingParam id="891" interp="linr"  time="0/1" value="0" leadInLength="0/1"  />
                     <InterpolatingParam id="892" interp="linr"  time="0/1" value="0" leadInLength="0/1"  />
                     <InterpolatingParam id="893" interp="linr"  time="0/1" value="0" leadInLength="0/1"  />
                     <InterpolatingParam id="894" interp="linr"  time="0/1" value="0" leadInLength="0/1"  />
                    </VectorParam>
                    <VectorParam id="895"  name="geometryCrop">
                     <InterpolatingParam id="896" interp="linr"  time="-9999999/1" value="0" leadInLength="0/1"  />
                     <InterpolatingParam id="897" interp="linr"  time="-9999999/1" value="0" leadInLength="0/1"  />
                     <InterpolatingParam id="898" interp="linr"  time="-9999999/1" value="0" leadInLength="0/1"  />
                     <InterpolatingParam id="899" interp="linr"  time="-9999999/1" value="0" leadInLength="0/1"  />
                    </VectorParam>
                    <InterpolatingParam id="900" interp="linr"  time="-9999999/1" value="1" leadInLength="0/1"  name="opacity"/>
                   </Parameters>
                   <Attributes>
                    <Attribute id="901" value="" name="ident"/>
                   </Attributes>
                   <MetaData>
                    <entry key="WinSubProjectDisplayName" val=""/>
                   </MetaData>
                   <ExtraData>
                    <Entry key="ZoomPanBin">
                     <ZoomPanBin id="902"  >
                      <ZoomPanKeyframes>
                       <ZoomPanKeyframe id="903" timeRangeEnd="-9999999/1" timeRangeDuration="0/1" interpolaterName="linr"  />
                      </ZoomPanKeyframes>
                     </ZoomPanBin>
                    </Entry>
                   </ExtraData>
                  </IMFile>
                  <IMFile id="904" start="146" duration="2" scalar="1/1" mediaStart="0/1" mediaDuration="1/1" trackNumber="0" src="18" trimStartSum="0/1" >
                   <Transformer>
                    <VectorParam id="905"  name="translation">
                     <InterpolatingParam id="906" interp="linr"  time="-9999999/1" value="0" leadInLength="0/1"  />
                     <InterpolatingParam id="907" interp="linr"  time="-9999999/1" value="0" leadInLength="0/1"  />
                     <InterpolatingParam id="908" interp="linr"  time="-9999999/1" value="0" leadInLength="0/1"  />
                    </VectorParam>
                    <VectorParam id="909"  name="rotation">
                     <InterpolatingParam id="910" interp="linr"  time="-9999999/1" value="0" leadInLength="0/1"  />
                     <InterpolatingParam id="911" interp="linr"  time="-9999999/1" value="0" leadInLength="0/1"  />
                     <InterpolatingParam id="912" interp="linr"  time="-9999999/1" value="0" leadInLength="0/1"  />
                    </VectorParam>
                    <VectorParam id="913"  name="shear">
                     <InterpolatingParam id="914" interp="linr"  time="-9999999/1" value="0" leadInLength="0/1"  />
                     <InterpolatingParam id="915" interp="linr"  time="-9999999/1" value="0" leadInLength="0/1"  />
                     <InterpolatingParam id="916" interp="linr"  time="-9999999/1" value="0" leadInLength="0/1"  />
                    </VectorParam>
                    <VectorParam id="917"  name="scale">
                     <InterpolatingParam id="918" interp="linr"  time="-9999999/1" value="1" leadInLength="0/1"  />
                     <InterpolatingParam id="919" interp="linr"  time="-9999999/1" value="1" leadInLength="0/1"  />
                     <InterpolatingParam id="920" interp="linr"  time="-9999999/1" value="1" leadInLength="0/1"  />
                    </VectorParam>
                    <VectorParam id="921"  name="anchor">
                     <InterpolatingParam id="922" interp="linr"  time="0/1" value="0" leadInLength="0/1"  />
                     <InterpolatingParam id="923" interp="linr"  time="0/1" value="0" leadInLength="0/1"  />
                     <InterpolatingParam id="924" interp="linr"  time="0/1" value="0" leadInLength="0/1"  />
                    </VectorParam>
                   </Transformer>
                   <Parameters>
                    <VectorParam id="925"  name="sourceCrop">
                     <InterpolatingParam id="926" interp="linr"  time="0/1" value="0" leadInLength="0/1"  />
                     <InterpolatingParam id="927" interp="linr"  time="0/1" value="0" leadInLength="0/1"  />
                     <InterpolatingParam id="928" interp="linr"  time="0/1" value="0" leadInLength="0/1"  />
                     <InterpolatingParam id="929" interp="linr"  time="0/1" value="0" leadInLength="0/1"  />
                    </VectorParam>
                    <VectorParam id="930"  name="geometryCrop">
                     <InterpolatingParam id="931" interp="linr"  time="-9999999/1" value="0" leadInLength="0/1"  />
                     <InterpolatingParam id="932" interp="linr"  time="-9999999/1" value="0" leadInLength="0/1"  />
                     <InterpolatingParam id="933" interp="linr"  time="-9999999/1" value="0" leadInLength="0/1"  />
                     <InterpolatingParam id="934" interp="linr"  time="-9999999/1" value="0" leadInLength="0/1"  />
                    </VectorParam>
                    <InterpolatingParam id="935" interp="linr"  time="-9999999/1" value="1" leadInLength="0/1"  name="opacity"/>
                   </Parameters>
                   <Attributes>
                    <Attribute id="936" value="" name="ident"/>
                   </Attributes>
                   <MetaData>
                    <entry key="WinSubProjectDisplayName" val=""/>
                   </MetaData>
                   <ExtraData>
                    <Entry key="ZoomPanBin">
                     <ZoomPanBin id="937"  >
                      <ZoomPanKeyframes>
                       <ZoomPanKeyframe id="938" timeRangeEnd="-9999999/1" timeRangeDuration="0/1" interpolaterName="linr"  />
                      </ZoomPanKeyframes>
                     </ZoomPanBin>
                    </Entry>
                   </ExtraData>
                  </IMFile>
                  <IMFile id="939" start="148" duration="2" scalar="1/1" mediaStart="0/1" mediaDuration="1/1" trackNumber="0" src="19" trimStartSum="0/1" >
                   <Transformer>
                    <VectorParam id="940"  name="translation">
                     <InterpolatingParam id="941" interp="linr"  time="-9999999/1" value="0" leadInLength="0/1"  />
                     <InterpolatingParam id="942" interp="linr"  time="-9999999/1" value="0" leadInLength="0/1"  />
                     <InterpolatingParam id="943" interp="linr"  time="-9999999/1" value="0" leadInLength="0/1"  />
                    </VectorParam>
                    <VectorParam id="944"  name="rotation">
                     <InterpolatingParam id="945" interp="linr"  time="-9999999/1" value="0" leadInLength="0/1"  />
                     <InterpolatingParam id="946" interp="linr"  time="-9999999/1" value="0" leadInLength="0/1"  />
                     <InterpolatingParam id="947" interp="linr"  time="-9999999/1" value="0" leadInLength="0/1"  />
                    </VectorParam>
                    <VectorParam id="948"  name="shear">
                     <InterpolatingParam id="949" interp="linr"  time="-9999999/1" value="0" leadInLength="0/1"  />
                     <InterpolatingParam id="950" interp="linr"  time="-9999999/1" value="0" leadInLength="0/1"  />
                     <InterpolatingParam id="951" interp="linr"  time="-9999999/1" value="0" leadInLength="0/1"  />
                    </VectorParam>
                    <VectorParam id="952"  name="scale">
                     <InterpolatingParam id="953" interp="linr"  time="-9999999/1" value="1" leadInLength="0/1"  />
                     <InterpolatingParam id="954" interp="linr"  time="-9999999/1" value="1" leadInLength="0/1"  />
                     <InterpolatingParam id="955" interp="linr"  time="-9999999/1" value="1" leadInLength="0/1"  />
                    </VectorParam>
                    <VectorParam id="956"  name="anchor">
                     <InterpolatingParam id="957" interp="linr"  time="0/1" value="0" leadInLength="0/1"  />
                     <InterpolatingParam id="958" interp="linr"  time="0/1" value="0" leadInLength="0/1"  />
                     <InterpolatingParam id="959" interp="linr"  time="0/1" value="0" leadInLength="0/1"  />
                    </VectorParam>
                   </Transformer>
                   <Parameters>
                    <VectorParam id="960"  name="sourceCrop">
                     <InterpolatingParam id="961" interp="linr"  time="0/1" value="0" leadInLength="0/1"  />
                     <InterpolatingParam id="962" interp="linr"  time="0/1" value="0" leadInLength="0/1"  />
                     <InterpolatingParam id="963" interp="linr"  time="0/1" value="0" leadInLength="0/1"  />
                     <InterpolatingParam id="964" interp="linr"  time="0/1" value="0" leadInLength="0/1"  />
                    </VectorParam>
                    <VectorParam id="965"  name="geometryCrop">
                     <InterpolatingParam id="966" interp="linr"  time="-9999999/1" value="0" leadInLength="0/1"  />
                     <InterpolatingParam id="967" interp="linr"  time="-9999999/1" value="0" leadInLength="0/1"  />
                     <InterpolatingParam id="968" interp="linr"  time="-9999999/1" value="0" leadInLength="0/1"  />
                     <InterpolatingParam id="969" interp="linr"  time="-9999999/1" value="0" leadInLength="0/1"  />
                    </VectorParam>
                    <InterpolatingParam id="970" interp="linr"  time="-9999999/1" value="1" leadInLength="0/1"  name="opacity"/>
                   </Parameters>
                   <Attributes>
                    <Attribute id="971" value="" name="ident"/>
                   </Attributes>
                   <MetaData>
                    <entry key="WinSubProjectDisplayName" val=""/>
                   </MetaData>
                   <ExtraData>
                    <Entry key="ZoomPanBin">
                     <ZoomPanBin id="972"  >
                      <ZoomPanKeyframes>
                       <ZoomPanKeyframe id="973" timeRangeEnd="-9999999/1" timeRangeDuration="0/1" interpolaterName="linr"  />
                      </ZoomPanKeyframes>
                     </ZoomPanBin>
                    </Entry>
                   </ExtraData>
                  </IMFile>
                 </Medias>
                </GenericTrack>
                <GenericTrack id="974"  >
                 <Attributes>
                  <Attribute id="975" value="" name="ident"/>
                  <Attribute id="976" value="0" name="audioMuted"/>
                  <Attribute id="977" value="0" name="videoHidden"/>
                 </Attributes>
                 <MetaData>
                  <entry key="IsLocked" val="False"/>
                  <entry key="WinTrackHeight" val="0"/>
                 </MetaData>
                 <Medias>
                  <IMFile id="978" start="0" duration="118" scalar="1/1" mediaStart="0/1" mediaDuration="1/1" trackNumber="0" src="4" trimStartSum="32/1" >
                   <Transformer>
                    <VectorParam id="979"  name="translation">
                     <InterpolatingParam id="980" interp="linr"  >
                      <Keyframes>
                      <Keyframe id="981"  time="-9999999/1" value="0" leadInLength="0/1"  interpolater="leadin-linr"  />
                      <Keyframe id="982"  time="84/1" value="1.6268586477963254e-010" leadInLength="12/1"  interpolater="leadin-eios"  />
                      </Keyframes>
                     </InterpolatingParam>
                     <InterpolatingParam id="983" interp="linr"  >
                      <Keyframes>
                      <Keyframe id="984"  time="-9999999/1" value="0" leadInLength="0/1"  interpolater="leadin-linr"  />
                      <Keyframe id="985"  time="84/1" value="767.99999999995146" leadInLength="12/1"  interpolater="leadin-eios"  />
                      </Keyframes>
                     </InterpolatingParam>
                     <InterpolatingParam id="986" interp="linr"  >
                      <Keyframes>
                      <Keyframe id="987"  time="-9999999/1" value="0" leadInLength="0/1"  interpolater="leadin-linr"  />
                      <Keyframe id="988"  time="84/1" value="0" leadInLength="12/1"  interpolater="leadin-eios"  />
                      </Keyframes>
                     </InterpolatingParam>
                    </VectorParam>
                    <VectorParam id="989"  name="rotation">
                     <InterpolatingParam id="990" interp="linr"  >
                      <Keyframes>
                      <Keyframe id="991"  time="-9999999/1" value="0" leadInLength="0/1"  interpolater="leadin-linr"  />
                      <Keyframe id="992"  time="84/1" value="0" leadInLength="12/1"  interpolater="leadin-eios"  />
                      </Keyframes>
                     </InterpolatingParam>
                     <InterpolatingParam id="993" interp="linr"  >
                      <Keyframes>
                      <Keyframe id="994"  time="-9999999/1" value="0" leadInLength="0/1"  interpolater="leadin-linr"  />
                      <Keyframe id="995"  time="84/1" value="0" leadInLength="12/1"  interpolater="leadin-eios"  />
                      </Keyframes>
                     </InterpolatingParam>
                     <InterpolatingParam id="996" interp="linr"  >
                      <Keyframes>
                      <Keyframe id="997"  time="-9999999/1" value="0" leadInLength="0/1"  interpolater="leadin-linr"  />
                      <Keyframe id="998"  time="84/1" value="0" leadInLength="12/1"  interpolater="leadin-eios"  />
                      </Keyframes>
                     </InterpolatingParam>
                    </VectorParam>
                    <VectorParam id="999"  name="shear">
                     <InterpolatingParam id="1000" interp="linr"  >
                      <Keyframes>
                      <Keyframe id="1001"  time="-9999999/1" value="0" leadInLength="0/1"  interpolater="leadin-linr"  />
                      <Keyframe id="1002"  time="84/1" value="0" leadInLength="12/1"  interpolater="leadin-eios"  />
                      </Keyframes>
                     </InterpolatingParam>
                     <InterpolatingParam id="1003" interp="linr"  >
                      <Keyframes>
                      <Keyframe id="1004"  time="-9999999/1" value="0" leadInLength="0/1"  interpolater="leadin-linr"  />
                      <Keyframe id="1005"  time="84/1" value="0" leadInLength="12/1"  interpolater="leadin-eios"  />
                      </Keyframes>
                     </InterpolatingParam>
                     <InterpolatingParam id="1006" interp="linr"  >
                      <Keyframes>
                      <Keyframe id="1007"  time="-9999999/1" value="0" leadInLength="0/1"  interpolater="leadin-linr"  />
                      <Keyframe id="1008"  time="84/1" value="0" leadInLength="12/1"  interpolater="leadin-eios"  />
                      </Keyframes>
                     </InterpolatingParam>
                    </VectorParam>
                    <VectorParam id="1009"  name="scale">
                     <InterpolatingParam id="1010" interp="linr"  >
                      <Keyframes>
                      <Keyframe id="1011"  time="-9999999/1" value="1" leadInLength="0/1"  interpolater="leadin-linr"  />
                      <Keyframe id="1012"  time="84/1" value="1" leadInLength="12/1"  interpolater="leadin-eios"  />
                      </Keyframes>
                     </InterpolatingParam>
                     <InterpolatingParam id="1013" interp="linr"  >
                      <Keyframes>
                      <Keyframe id="1014"  time="-9999999/1" value="1" leadInLength="0/1"  interpolater="leadin-linr"  />
                      <Keyframe id="1015"  time="84/1" value="1" leadInLength="12/1"  interpolater="leadin-eios"  />
                      </Keyframes>
                     </InterpolatingParam>
                     <InterpolatingParam id="1016" interp="linr"  >
                      <Keyframes>
                      <Keyframe id="1017"  time="-9999999/1" value="1" leadInLength="0/1"  interpolater="leadin-linr"  />
                      <Keyframe id="1018"  time="84/1" value="1" leadInLength="12/1"  interpolater="leadin-eios"  />
                      </Keyframes>
                     </InterpolatingParam>
                    </VectorParam>
                    <VectorParam id="1019"  name="anchor">
                     <InterpolatingParam id="1020" interp="linr"  time="0/1" value="0" leadInLength="0/1"  />
                     <InterpolatingParam id="1021" interp="linr"  time="0/1" value="0" leadInLength="0/1"  />
                     <InterpolatingParam id="1022" interp="linr"  time="0/1" value="0" leadInLength="0/1"  />
                    </VectorParam>
                   </Transformer>
                   <Parameters>
                    <VectorParam id="1023"  name="sourceCrop">
                     <InterpolatingParam id="1024" interp="linr"  time="0/1" value="0" leadInLength="0/1"  />
                     <InterpolatingParam id="1025" interp="linr"  time="0/1" value="0" leadInLength="0/1"  />
                     <InterpolatingParam id="1026" interp="linr"  time="0/1" value="0" leadInLength="0/1"  />
                     <InterpolatingParam id="1027" interp="linr"  time="0/1" value="0" leadInLength="0/1"  />
                    </VectorParam>
                    <VectorParam id="1028"  name="geometryCrop">
                     <InterpolatingParam id="1029" interp="linr"  >
                      <Keyframes>
                      <Keyframe id="1030"  time="-9999999/1" value="0" leadInLength="0/1"  interpolater="leadin-linr"  />
                      <Keyframe id="1031"  time="84/1" value="0" leadInLength="12/1"  interpolater="leadin-eios"  />
                      </Keyframes>
                     </InterpolatingParam>
                     <InterpolatingParam id="1032" interp="linr"  >
                      <Keyframes>
                      <Keyframe id="1033"  time="-9999999/1" value="0" leadInLength="0/1"  interpolater="leadin-linr"  />
                      <Keyframe id="1034"  time="84/1" value="0" leadInLength="12/1"  interpolater="leadin-eios"  />
                      </Keyframes>
                     </InterpolatingParam>
                     <InterpolatingParam id="1035" interp="linr"  >
                      <Keyframes>
                      <Keyframe id="1036"  time="-9999999/1" value="0" leadInLength="0/1"  interpolater="leadin-linr"  />
                      <Keyframe id="1037"  time="84/1" value="0" leadInLength="12/1"  interpolater="leadin-eios"  />
                      </Keyframes>
                     </InterpolatingParam>
                     <InterpolatingParam id="1038" interp="linr"  >
                      <Keyframes>
                      <Keyframe id="1039"  time="-9999999/1" value="0" leadInLength="0/1"  interpolater="leadin-linr"  />
                      <Keyframe id="1040"  time="84/1" value="0" leadInLength="12/1"  interpolater="leadin-eios"  />
                      </Keyframes>
                     </InterpolatingParam>
                    </VectorParam>
                    <InterpolatingParam id="1041" interp="linr"  name="opacity">
                     <Keyframes>
                     <Keyframe id="1042"  time="-9999999/1" value="1" leadInLength="0/1"  interpolater="leadin-linr"  />
                     <Keyframe id="1043"  time="84/1" value="1" leadInLength="12/1"  interpolater="leadin-eios"  />
                     </Keyframes>
                    </InterpolatingParam>
                   </Parameters>
                   <Attributes>
                    <Attribute id="1044" value="" name="ident"/>
                   </Attributes>
                   <MetaData>
                    <entry key="WinSubProjectDisplayName" val=""/>
                   </MetaData>
                   <ExtraData>
                    <Entry key="ZoomPanBin">
                     <ZoomPanBin id="1045"  >
                      <ZoomPanKeyframes>
                       <ZoomPanKeyframe id="1046" timeRangeEnd="-9999999/1" timeRangeDuration="0/1" interpolaterName="leadin-linr"  />
                       <ZoomPanKeyframe id="1047" timeRangeEnd="84/1" timeRangeDuration="12/1" interpolaterName="leadin-eios"  />
                      </ZoomPanKeyframes>
                     </ZoomPanBin>
                    </Entry>
                   </ExtraData>
                  </IMFile>
                 </Medias>
                </GenericTrack>
               </Tracks>
              </GenericMixer>
              <MetaData>
               <entry key="IsGroupExpanded" val="False"/>
               <entry key="WinSubProjectDisplayName" val="Imagens"/>
              </MetaData>
              <ExtraData>
               <Entry key="ZoomPanBin">
                <ZoomPanBin id="1048"  >
                 <ZoomPanKeyframes>
                 </ZoomPanKeyframes>
                </ZoomPanBin>
               </Entry>
              </ExtraData>
             </Group>
             <UnifiedMedia id="1049"  >
              <AudioTransition id="1050" start="142" duration="8" >
               <Parameters>
                <InterpolatingParam id="1051" interp="linr"  time="0/1" value="1" leadInLength="0/1"  name="volume"/>
                <Parameter id="1052"  name="captions"/>
               </Parameters>
               <Effects>
                <GenericEffect id="1053" name = "AudioTransition" >
                 <Parameters>
                 <Parameter id="1054"   name="audioEdgeModType">
                  <Keyframes>
                  <Keyframe id="1055"  time="0/1" value="0" leadInLength="0/1"  />
                  </Keyframes>
                 </Parameter>
                 <Parameter id="1056"   name="audioTransitionType">
                  <Keyframes>
                  <Keyframe id="1057"  time="0/1" value="" leadInLength="0/1"  />
                  </Keyframes>
                 </Parameter>
                 </Parameters>
                 <MetaData>
                 </MetaData>
                </GenericEffect>
               </Effects>
               <Attributes>
                <Attribute id="1058" value="" name="ident"/>
                <Attribute id="1059" value="0" name="sampleRate"/>
                <Attribute id="1060" value="0" name="bitDepth"/>
                <Attribute id="1061" value="1" name="gain"/>
                <Attribute id="1062" value="0" name="mixToMono"/>
               </Attributes>
              </AudioTransition>
              <ImageTransition id="1063" start="142" duration="8" >
               <Transformer>
                <VectorParam id="1064"  name="translation">
                 <InterpolatingParam id="1065" interp="linr"  time="0/1" value="0" leadInLength="0/1"  />
                 <InterpolatingParam id="1066" interp="linr"  time="0/1" value="0" leadInLength="0/1"  />
                 <InterpolatingParam id="1067" interp="linr"  time="0/1" value="0" leadInLength="0/1"  />
                </VectorParam>
                <VectorParam id="1068"  name="rotation">
                 <InterpolatingParam id="1069" interp="linr"  time="0/1" value="0" leadInLength="0/1"  />
                 <InterpolatingParam id="1070" interp="linr"  time="0/1" value="0" leadInLength="0/1"  />
                 <InterpolatingParam id="1071" interp="linr"  time="0/1" value="0" leadInLength="0/1"  />
                </VectorParam>
                <VectorParam id="1072"  name="shear">
                 <InterpolatingParam id="1073" interp="linr"  time="0/1" value="0" leadInLength="0/1"  />
                 <InterpolatingParam id="1074" interp="linr"  time="0/1" value="0" leadInLength="0/1"  />
                 <InterpolatingParam id="1075" interp="linr"  time="0/1" value="0" leadInLength="0/1"  />
                </VectorParam>
                <VectorParam id="1076"  name="scale">
                 <InterpolatingParam id="1077" interp="linr"  time="0/1" value="1" leadInLength="0/1"  />
                 <InterpolatingParam id="1078" interp="linr"  time="0/1" value="1" leadInLength="0/1"  />
                 <InterpolatingParam id="1079" interp="linr"  time="0/1" value="1" leadInLength="0/1"  />
                </VectorParam>
                <VectorParam id="1080"  name="anchor">
                 <InterpolatingParam id="1081" interp="linr"  time="0/1" value="0" leadInLength="0/1"  />
                 <InterpolatingParam id="1082" interp="linr"  time="0/1" value="0" leadInLength="0/1"  />
                 <InterpolatingParam id="1083" interp="linr"  time="0/1" value="0" leadInLength="0/1"  />
                </VectorParam>
               </Transformer>
               <Parameters>
                <VectorParam id="1084"  name="sourceCrop">
                 <InterpolatingParam id="1085" interp="linr"  time="0/1" value="0" leadInLength="0/1"  />
                 <InterpolatingParam id="1086" interp="linr"  time="0/1" value="0" leadInLength="0/1"  />
                 <InterpolatingParam id="1087" interp="linr"  time="0/1" value="0" leadInLength="0/1"  />
                 <InterpolatingParam id="1088" interp="linr"  time="0/1" value="0" leadInLength="0/1"  />
                </VectorParam>
                <VectorParam id="1089"  name="geometryCrop">
                 <InterpolatingParam id="1090" interp="linr"  time="0/1" value="0" leadInLength="0/1"  />
                 <InterpolatingParam id="1091" interp="linr"  time="0/1" value="0" leadInLength="0/1"  />
                 <InterpolatingParam id="1092" interp="linr"  time="0/1" value="0" leadInLength="0/1"  />
                 <InterpolatingParam id="1093" interp="linr"  time="0/1" value="0" leadInLength="0/1"  />
                </VectorParam>
                <InterpolatingParam id="1094" interp="linr"  time="0/1" value="1" leadInLength="0/1"  name="opacity"/>
               </Parameters>
               <Effects>
                <GenericEffect id="1095" name = "VisualTransition" >
                 <Parameters>
                 <InterpolatingParam id="1096" interp="linr"  time="0/1" value="0.5" leadInLength="0/1"   name="leftFramePercentage"/>
                 <InterpolatingParam id="1097" interp="linr"  time="0/1" value="0.5" leadInLength="0/1"   name="rightFramePercentage"/>
                 <Parameter id="1098"   name="visualEdgeModType">
                  <Keyframes>
                  <Keyframe id="1099"  time="0/1" value="2" leadInLength="0/1"  />
                  </Keyframes>
                 </Parameter>
                 <Parameter id="1100"   name="visualTransitionType">
                  <Keyframes>
                  <Keyframe id="1101"  time="0/1" value="Fade" leadInLength="0/1"  />
                  </Keyframes>
                 </Parameter>
                 </Parameters>
                 <MetaData>
                 </MetaData>
                </GenericEffect>
               </Effects>
               <Attributes>
                <Attribute id="1102" value="" name="ident"/>
               </Attributes>
               <ExtraData>
                <Entry key="ZoomPanBin">
                 <ZoomPanBin id="1103"  >
                  <ZoomPanKeyframes>
                  </ZoomPanKeyframes>
                 </ZoomPanBin>
                </Entry>
               </ExtraData>
              </ImageTransition>
              <MetaData>
               <entry key="WinSubProjectDisplayName" val=""/>
              </MetaData>
             </UnifiedMedia>
            </Medias>
           </GenericTrack>
           <GenericTrack id="1104"  >
            <Attributes>
             <Attribute id="1105" value="" name="ident"/>
             <Attribute id="1106" value="0" name="audioMuted"/>
             <Attribute id="1107" value="0" name="videoHidden"/>
            </Attributes>
            <MetaData>
             <entry key="IsLocked" val="False"/>
             <entry key="WinTrackHeight" val="0"/>
            </MetaData>
            <Medias>
             <Group id="1108" start="0" duration="219" scalar="1" mediaStart="0" mediaDuration="219" baseWidthAttr="0" baseHeightAttr="0"  >
              <Parameters>
               <VectorParam id="1109"  name="sourceCrop">
                <InterpolatingParam id="1110" interp="linr"  time="0/1" value="0" leadInLength="0/1"  />
                <InterpolatingParam id="1111" interp="linr"  time="0/1" value="0" leadInLength="0/1"  />
                <InterpolatingParam id="1112" interp="linr"  time="0/1" value="0" leadInLength="0/1"  />
                <InterpolatingParam id="1113" interp="linr"  time="0/1" value="0" leadInLength="0/1"  />
               </VectorParam>
               <VectorParam id="1114"  name="geometryCrop">
                <InterpolatingParam id="1115" interp="linr"  time="0/1" value="0" leadInLength="0/1"  />
                <InterpolatingParam id="1116" interp="linr"  time="0/1" value="0" leadInLength="0/1"  />
                <InterpolatingParam id="1117" interp="linr"  time="0/1" value="0" leadInLength="0/1"  />
                <InterpolatingParam id="1118" interp="linr"  time="0/1" value="0" leadInLength="0/1"  />
               </VectorParam>
               <InterpolatingParam id="1119" interp="linr"  time="0/1" value="1" leadInLength="0/1"  name="opacity"/>
               <Parameter id="1120"  name="captions"/>
               <InterpolatingParam id="1121" interp="linr"  time="0/1" value="1" leadInLength="0/1"  name="volume"/>
              </Parameters>
              <Transformer>
               <VectorParam id="1122"  name="translation">
                <InterpolatingParam id="1123" interp="linr"  time="0/1" value="0" leadInLength="0/1"  />
                <InterpolatingParam id="1124" interp="linr"  time="0/1" value="0" leadInLength="0/1"  />
                <InterpolatingParam id="1125" interp="linr"  time="0/1" value="0" leadInLength="0/1"  />
               </VectorParam>
               <VectorParam id="1126"  name="rotation">
                <InterpolatingParam id="1127" interp="linr"  time="0/1" value="0" leadInLength="0/1"  />
                <InterpolatingParam id="1128" interp="linr"  time="0/1" value="0" leadInLength="0/1"  />
                <InterpolatingParam id="1129" interp="linr"  time="0/1" value="0" leadInLength="0/1"  />
               </VectorParam>
               <VectorParam id="1130"  name="shear">
                <InterpolatingParam id="1131" interp="linr"  time="0/1" value="0" leadInLength="0/1"  />
                <InterpolatingParam id="1132" interp="linr"  time="0/1" value="0" leadInLength="0/1"  />
                <InterpolatingParam id="1133" interp="linr"  time="0/1" value="0" leadInLength="0/1"  />
               </VectorParam>
               <VectorParam id="1134"  name="scale">
                <InterpolatingParam id="1135" interp="linr"  time="0/1" value="1" leadInLength="0/1"  />
                <InterpolatingParam id="1136" interp="linr"  time="0/1" value="1" leadInLength="0/1"  />
                <InterpolatingParam id="1137" interp="linr"  time="0/1" value="1" leadInLength="0/1"  />
               </VectorParam>
               <VectorParam id="1138"  name="anchor">
                <InterpolatingParam id="1139" interp="linr"  time="0/1" value="0" leadInLength="0/1"  />
                <InterpolatingParam id="1140" interp="linr"  time="0/1" value="0" leadInLength="0/1"  />
                <InterpolatingParam id="1141" interp="linr"  time="0/1" value="0" leadInLength="0/1"  />
               </VectorParam>
              </Transformer>
              <GenericMixer id="1142"  >
               <MetaData>
               </MetaData>
               <Tracks>
                <GenericTrack id="1143"  >
                 <Attributes>
                  <Attribute id="1144" value="" name="ident"/>
                  <Attribute id="1145" value="0" name="audioMuted"/>
                  <Attribute id="1146" value="0" name="videoHidden"/>
                 </Attributes>
                 <MetaData>
                  <entry key="IsLocked" val="False"/>
                  <entry key="WinTrackHeight" val="0"/>
                 </MetaData>
                 <Medias>
                  <AMFile id="1147" start="0" duration="219" scalar="1/1" mediaStart="0/1" mediaDuration="219/1" trackNumber="0" src="21" channelNumber="0" >
                   <Parameters>
                    <InterpolatingParam id="1148" interp="linr"  time="0/1" value="0.80000000000000004" leadInLength="0/1"  name="volume"/>
                    <Parameter id="1149"  name="captions"/>
                   </Parameters>
                   <Attributes>
                    <Attribute id="1150" value="" name="ident"/>
                    <Attribute id="1151" value="44100" name="sampleRate"/>
                    <Attribute id="1152" value="0" name="bitDepth"/>
                    <Attribute id="1153" value="1" name="gain"/>
                    <Attribute id="1154" value="0" name="mixToMono"/>
                   </Attributes>
                   <MetaData>
                    <entry key="WinSubProjectDisplayName" val=""/>
                   </MetaData>
                  </AMFile>
                 </Medias>
                </GenericTrack>
                <GenericTrack id="1155"  >
                 <Attributes>
                  <Attribute id="1156" value="" name="ident"/>
                  <Attribute id="1157" value="0" name="audioMuted"/>
                  <Attribute id="1158" value="0" name="videoHidden"/>
                 </Attributes>
                 <MetaData>
                  <entry key="IsLocked" val="False"/>
                  <entry key="WinTrackHeight" val="0"/>
                 </MetaData>
                 <Medias>
                  <AMFile id="1159" start="15" duration="117" scalar="1/1" mediaStart="0/1" mediaDuration="117/1" trackNumber="0" src="20" channelNumber="0" >
                   <Parameters>
                    <InterpolatingParam id="1160" interp="linr"  time="0/1" value="1.25" leadInLength="0/1"  name="volume"/>
                    <Parameter id="1161"  name="captions"/>
                   </Parameters>
                   <Attributes>
                    <Attribute id="1162" value="" name="ident"/>
                    <Attribute id="1163" value="44100" name="sampleRate"/>
                    <Attribute id="1164" value="16" name="bitDepth"/>
                    <Attribute id="1165" value="1" name="gain"/>
                    <Attribute id="1166" value="0" name="mixToMono"/>
                   </Attributes>
                   <MetaData>
                    <entry key="WinSubProjectDisplayName" val=""/>
                   </MetaData>
                  </AMFile>
                 </Medias>
                </GenericTrack>
               </Tracks>
              </GenericMixer>
              <MetaData>
               <entry key="IsGroupExpanded" val="True"/>
               <entry key="WinSubProjectDisplayName" val="Música"/>
              </MetaData>
              <ExtraData>
               <Entry key="ZoomPanBin">
                <ZoomPanBin id="1167"  >
                 <ZoomPanKeyframes>
                 </ZoomPanKeyframes>
                </ZoomPanBin>
               </Entry>
              </ExtraData>
             </Group>
            </Medias>
           </GenericTrack>
          </Tracks>
         </GenericMixer>
         <MetaData>
          <entry key="IsGroupExpanded" val="True"/>
          <entry key="WinSubProjectDisplayName" val="Vinheta Windows 8 Metro"/>
         </MetaData>
         <ExtraData>
          <Entry key="ZoomPanBin">
           <ZoomPanBin id="1168"  >
            <ZoomPanKeyframes>
            </ZoomPanKeyframes>
           </ZoomPanBin>
          </Entry>
         </ExtraData>
        </Group>
       </Medias>
      </GenericTrack>
      <GenericTrack id="1169"  >
       <Attributes>
        <Attribute id="1170" value="" name="ident"/>
        <Attribute id="1171" value="0" name="audioMuted"/>
        <Attribute id="1172" value="0" name="videoHidden"/>
       </Attributes>
       <MetaData>
        <entry key="IsLocked" val="False"/>
        <entry key="WinTrackHeight" val="62"/>
       </MetaData>
       <Medias>
       </Medias>
      </GenericTrack>
      <GenericTrack id="1173"  >
       <Attributes>
        <Attribute id="1174" value="" name="ident"/>
        <Attribute id="1175" value="0" name="audioMuted"/>
        <Attribute id="1176" value="0" name="videoHidden"/>
       </Attributes>
       <MetaData>
        <entry key="IsLocked" val="False"/>
        <entry key="WinTrackHeight" val="62"/>
       </MetaData>
       <Medias>
       </Medias>
      </GenericTrack>
      <GenericTrack id="1177"  >
       <Attributes>
        <Attribute id="1178" value="" name="ident"/>
        <Attribute id="1179" value="0" name="audioMuted"/>
        <Attribute id="1180" value="0" name="videoHidden"/>
       </Attributes>
       <MetaData>
        <entry key="IsLocked" val="False"/>
        <entry key="WinTrackHeight" val="62"/>
       </MetaData>
       <Medias>
       </Medias>
      </GenericTrack>
      <GenericTrack id="1181"  >
       <Attributes>
        <Attribute id="1182" value="" name="ident"/>
        <Attribute id="1183" value="0" name="audioMuted"/>
        <Attribute id="1184" value="0" name="videoHidden"/>
       </Attributes>
       <MetaData>
        <entry key="IsLocked" val="False"/>
        <entry key="WinTrackHeight" val="62"/>
       </MetaData>
       <Medias>
       </Medias>
      </GenericTrack>
      <GenericTrack id="1185"  >
       <Attributes>
        <Attribute id="1186" value="" name="ident"/>
        <Attribute id="1187" value="0" name="audioMuted"/>
        <Attribute id="1188" value="0" name="videoHidden"/>
       </Attributes>
       <MetaData>
        <entry key="IsLocked" val="False"/>
        <entry key="WinTrackHeight" val="62"/>
       </MetaData>
       <Medias>
       </Medias>
      </GenericTrack>
     </Tracks>
    </GenericMixer>
   <CaptionAttributes id="1189"  >
    <Attribute id="1190" value="1" name="captionsEnabled"/>
    <Attribute id="1191" value="Arial" name="captionsFontName"/>
    <Attribute id="1192" value="28" name="captionsFontSize"/>
    <Attribute id="1193" value="(0,0,0,255)" name="captionsBackgroundColor"/>
    <Attribute id="1194" value="(255,255,255,255)" name="captionsForegroundColor"/>
    <Attribute id="1195" value="en" name="lang"/>
    <Attribute id="1196" value="0" name="captionsAlignment"/>
    <Attribute id="1197" value="1" name="captionsDefaultFontSize"/>
    <Attribute id="1198" value="0.5" name="captionsOpacity"/>
    <Attribute id="1199" value="1" name="captionsBackgroundEnabled"/>
    <Attribute id="1200" value="1" name="captionsBackgroundOnlyAroundText"/>
   </CaptionAttributes>
   <Parameters>
    <VectorParam id="1201"  name="eyePosition">
     <InterpolatingParam id="1202" interp="linr"  time="0/1" value="0" leadInLength="0/1"  />
     <InterpolatingParam id="1203" interp="linr"  time="0/1" value="0" leadInLength="0/1"  />
     <InterpolatingParam id="1204" interp="linr"  time="0/1" value="3000" leadInLength="0/1"  />
    </VectorParam>
    <VectorParam id="1205"  name="eyeLookAtPosition">
     <InterpolatingParam id="1206" interp="linr"  time="0/1" value="0" leadInLength="0/1"  />
     <InterpolatingParam id="1207" interp="linr"  time="0/1" value="0" leadInLength="0/1"  />
     <InterpolatingParam id="1208" interp="linr"  time="0/1" value="0" leadInLength="0/1"  />
    </VectorParam>
    <VectorParam id="1209"  name="eyeUpVector">
     <InterpolatingParam id="1210" interp="linr"  time="0/1" value="0" leadInLength="0/1"  />
     <InterpolatingParam id="1211" interp="linr"  time="0/1" value="1" leadInLength="0/1"  />
     <InterpolatingParam id="1212" interp="linr"  time="0/1" value="0" leadInLength="0/1"  />
    </VectorParam>
    <InterpolatingParam id="1213" interp="linr"  time="0/1" value="0.254615486" leadInLength="0/1"  name="fov"/>
    <InterpolatingParam id="1214" interp="linr"  time="0/1" value="1.5" leadInLength="0/1"  name="nearClipDistance"/>
    <InterpolatingParam id="1215" interp="linr"  time="0/1" value="6000" leadInLength="0/1"  name="farClipDistance"/>
   </Parameters>
  </Timeline>
 </Project>
</GoProject>
</CSMLData>

</Project_Data>
